<?xml version="1.0" encoding="UTF-8" standalone="no"?>
<!-- Created with Inkscape (http://www.inkscape.org/) -->

<svg
   xmlns:dc="http://purl.org/dc/elements/1.1/"
   xmlns:cc="http://creativecommons.org/ns#"
   xmlns:rdf="http://www.w3.org/1999/02/22-rdf-syntax-ns#"
   xmlns:svg="http://www.w3.org/2000/svg"
   xmlns="http://www.w3.org/2000/svg"
   version="1.1"
   width="1052.3625"
   height="331.92874"
   id="svg2"
   xml:space="preserve"><metadata
     id="metadata8"><rdf:RDF><cc:Work
         rdf:about=""><dc:format>image/svg+xml</dc:format><dc:type
           rdf:resource="http://purl.org/dc/dcmitype/StillImage" /><dc:title></dc:title></cc:Work></rdf:RDF></metadata><defs
     id="defs6"><clipPath
       id="clipPath16"><path
         d="m 0,265.543 841.89,0 L 841.89,0 0,0 0,265.543 z"
         id="path18" /></clipPath></defs><g
     transform="matrix(1.25,0,0,-1.25,0,331.92875)"
     id="g10"><g
       id="g12"><g
         clip-path="url(#clipPath16)"
         id="g14"><g
           transform="translate(640.6382,127.8059)"
           id="g20"><path
             d="m 0,0 c -5.239,-5.587 -12.676,-9.09 -20.922,-9.09 -15.822,0 -28.695,12.873 -28.695,28.695 0,15.822 12.873,28.695 28.695,28.695 8.508,0 16.139,-3.743 21.399,-9.644 l 10.527,9.25 c -7.827,8.819 -19.235,14.391 -31.926,14.391 -23.541,0 -42.692,-19.152 -42.692,-42.692 0,-23.541 19.151,-42.692 42.692,-42.692 12.362,0 23.505,5.289 31.308,13.713 L 0,0 z"
             id="path22"
             style="fill:#274853;fill-opacity:1;fill-rule:nonzero;stroke:none" /></g><g
           transform="translate(473.92,176.5922)"
           id="g24"><path
             d="m 0,0 -8.212,-11.974 c 3.616,-4.801 5.787,-10.748 5.787,-17.208 0,-15.822 -12.873,-28.694 -28.695,-28.694 -15.822,0 -28.695,12.872 -28.695,28.694 0,15.823 12.873,28.696 28.695,28.696 2.26,0 4.449,-0.29 6.559,-0.786 l 8.305,12.109 c -4.632,1.726 -9.639,2.674 -14.864,2.674 -23.541,0 -42.692,-19.152 -42.692,-42.693 0,-23.54 19.151,-42.692 42.692,-42.692 23.54,0 42.692,19.152 42.692,42.692 C 11.572,-17.904 7.169,-7.64 0,0"
             id="path26"
             style="fill:#274853;fill-opacity:1;fill-rule:nonzero;stroke:none" /></g><g
           transform="translate(682.5131,205.563)"
           id="g28"><path
             d="m 0,0 c 0,-4.692 -3.803,-8.496 -8.496,-8.496 -4.692,0 -8.495,3.804 -8.495,8.496 0,4.692 3.803,8.496 8.495,8.496 C -3.803,8.496 0,4.692 0,0"
             id="path30"
             style="fill:#274853;fill-opacity:1;fill-rule:nonzero;stroke:none" /></g><path
           d="m 666.988,189.952 14.06,0 0,-84.97 -14.06,0 0,84.97 z"
           id="path32"
           style="fill:#274853;fill-opacity:1;fill-rule:nonzero;stroke:none" /><g
           transform="translate(737.6945,176.1059)"
           id="g34"><path
             d="m 0,0 c -15.822,0 -28.695,-12.873 -28.695,-28.695 0,-15.823 12.873,-28.695 28.695,-28.695 15.823,0 28.696,12.872 28.696,28.695 C 28.696,-12.873 15.823,0 0,0 m 0,-71.387 c -23.54,0 -42.692,19.151 -42.692,42.692 0,23.54 19.152,42.692 42.692,42.692 23.541,0 42.693,-19.152 42.693,-42.692 0,-23.541 -19.152,-42.692 -42.693,-42.692"
             id="path36"
             style="fill:#274853;fill-opacity:1;fill-rule:nonzero;stroke:none" /></g><g
           transform="translate(216.765,176.1059)"
           id="g38"><path
             d="m 0,0 c -15.822,0 -28.695,-12.873 -28.695,-28.695 0,-15.823 12.873,-28.695 28.695,-28.695 15.823,0 28.695,12.872 28.695,28.695 C 28.695,-12.873 15.823,0 0,0 m 0,-71.387 c -23.541,0 -42.692,19.151 -42.692,42.692 0,23.54 19.151,42.692 42.692,42.692 23.541,0 42.693,-19.152 42.693,-42.692 0,-23.541 -19.152,-42.692 -42.693,-42.692"
             id="path40"
             style="fill:#274853;fill-opacity:1;fill-rule:nonzero;stroke:none" /></g><g
           transform="translate(419.6878,190.6924)"
           id="g42"><path
             d="m 0,0 -4.753,9.298 c 1.567,1.42 2.61,3.422 2.76,5.699 0.307,4.654 -3.217,8.676 -7.871,8.983 -4.654,0.307 -8.676,-3.217 -8.983,-7.872 -0.307,-4.654 3.218,-8.675 7.872,-8.982 0.793,-0.053 1.566,0.015 2.307,0.171 L -3.915,-2.001 0,0 z"
             id="path44"
             style="fill:#808381;fill-opacity:1;fill-rule:nonzero;stroke:none" /></g><g
           transform="translate(454.0492,225.9193)"
           id="g46"><path
             d="m 0,0 c -0.17,5.937 -5.12,10.612 -11.056,10.443 -5.937,-0.169 -10.612,-5.119 -10.443,-11.056 0.142,-4.958 3.621,-9.024 8.22,-10.136 l -0.165,-19.19 4.879,-0.041 0.165,19.183 C -3.471,-9.699 0.149,-5.235 0,0"
             id="path48"
             style="fill:#e5403a;fill-opacity:1;fill-rule:nonzero;stroke:none" /></g><g
           transform="translate(492.5495,219.1801)"
           id="g50"><path
             d="m 0,0 c -6.193,5.441 -15.625,4.833 -21.066,-1.361 -5.099,-5.802 -4.885,-14.451 0.259,-19.993 L -45.36,-57.647 c -2.755,0.885 -5.799,0.954 -8.759,-0.016 -7.46,-2.445 -11.526,-10.475 -9.08,-17.935 2.445,-7.46 10.474,-11.526 17.934,-9.081 7.46,2.446 11.526,10.475 9.081,17.935 -0.572,1.746 -1.459,3.296 -2.563,4.63 l 24.742,36.577 c 5.384,-1.556 11.421,-0.018 15.365,4.47 C 6.802,-14.874 6.193,-5.442 0,0"
             id="path52"
             style="fill:#00abcb;fill-opacity:1;fill-rule:nonzero;stroke:none" /></g><g
           transform="translate(354.4904,190.3439)"
           id="g54"><path
             d="M 0,0 C -10.187,0 -19.261,-4.789 -25.141,-12.217 -31.021,-4.789 -40.095,0 -50.282,0 -67.969,0 -82.358,-14.389 -82.358,-32.076 l 0,-53.286 13.871,0 0,53.286 c 0,10.039 8.166,18.205 18.205,18.205 10.039,0 18.206,-8.166 18.206,-18.205 l 0,-53.286 13.87,0 0,53.286 c 0,10.039 8.167,18.205 18.206,18.205 10.039,0 18.205,-8.166 18.205,-18.205 l 0,-53.286 13.871,0 0,53.286 C 32.076,-14.389 17.687,0 0,0"
             id="path56"
             style="fill:#274853;fill-opacity:1;fill-rule:nonzero;stroke:none" /></g><g
           transform="translate(120.0548,118.5894)"
           id="g58"><path
             d="m 0,0 c -15.906,0 -28.846,12.94 -28.846,28.846 0,15.905 12.94,28.845 28.846,28.845 15.905,0 28.845,-12.94 28.845,-28.845 C 28.845,12.94 15.905,0 0,0 M 28.845,60.32 C 21.239,67.296 11.11,71.562 0,71.562 c -23.554,0 -42.717,-19.162 -42.717,-42.716 0,-23.554 19.163,-42.717 42.717,-42.717 23.314,0 42.313,18.778 42.698,42.002 l 0.018,0 0,82.935 -13.871,-12.33 0,-38.416 z"
             id="path60"
             style="fill:#274853;fill-opacity:1;fill-rule:nonzero;stroke:none" /></g><g
           transform="translate(533.4697,154.5695)"
           id="g62"><path
             d="m 0,0 c -17.417,2.797 -21.594,4.845 -21.284,10.435 0.189,3.411 7.169,12.028 21.767,11.219 7.934,-0.44 14.549,-3.677 20.196,-9.804 l 10.624,9.358 C 23.093,30.09 13.002,34.929 1.255,35.58 -21.795,36.858 -34.918,22.256 -35.53,11.225 c -1.079,-19.477 18.764,-22.662 33.251,-24.988 17.864,-2.87 22.144,-5.038 21.811,-11.054 -0.277,-4.992 -8.299,-11.79 -22.083,-11.026 -10.223,0.567 -17.755,4.946 -23.025,13.385 l -0.019,0.031 -10.694,-9.439 c 7.702,-10.941 19.059,-17.131 32.966,-17.902 19.656,-1.089 36.299,9.75 37.098,24.162 C 34.884,-5.6 14.721,-2.363 0,0"
             id="path64"
             style="fill:#274853;fill-opacity:1;fill-rule:nonzero;stroke:none" /></g></g></g><text
       transform="matrix(1,0,0,-1,86.2178,43.4219)"
       id="text66"><tspan
         x="0 36.79977 59.382484 97.919388 117.11927 155.29045 189.62167 218.42149 255.49554 274.69543 307.51807 346.74069 383.31189 402.51178 435.06015 470.07706 507.15112 543.72229 583.95062 606.53333 646.76166"
         y="0"
         id="tspan68"
         style="font-size:45.7140007px;font-variant:normal;font-weight:normal;font-stretch:normal;writing-mode:lr-tb;fill:#274853;fill-opacity:1;fill-rule:nonzero;stroke:none;font-family:Signika;-inkscape-font-specification:Signika-Regular">BIG DATA FOR LEARNING</tspan></text>
</g></svg>