<?xml version="1.0" encoding="utf-8"?>
<!-- Generator: Adobe Illustrator 21.0.0, SVG Export Plug-In . SVG Version: 6.00 Build 0)  -->
<svg version="1.1" id="logo_1_" xmlns="http://www.w3.org/2000/svg" xmlns:xlink="http://www.w3.org/1999/xlink" x="0px" y="0px"
	 viewBox="0 0 181 52" style="enable-background:new 0 0 181 52;" xml:space="preserve">
<style type="text/css">
	.st0{fill:#10A29E;}
	.st1{fill:#00CC99;}
	.st2{fill:#FFB10F;}
</style>
<g>
	<g>
		<path class="st0" d="M71.4,44.5c-7.1,0-12.7-5.8-12.7-12.9V10.2c0-1,0.8-1.9,1.9-1.9c1,0,1.9,0.9,1.9,1.9v21.4c0,5,3.9,9.2,9,9.2
			c5,0,9-4.2,9-9.2V10.2c0-1,0.8-1.9,1.8-1.9c1.1,0,1.9,0.9,1.9,1.9v21.4C84.1,38.6,78.4,44.5,71.4,44.5z"/>
		<path class="st0" d="M111.7,44.5c-1,0-1.8-0.9-1.8-1.9v-11c0-5-4.1-9.1-9.1-9.1c-5,0-9.2,4-9.2,9.1v11c0,1-0.8,1.9-1.9,1.9
			c-1,0-1.9-0.9-1.9-1.9v-11c0-7.1,5.8-12.8,12.9-12.8c7.1,0,12.9,5.8,12.9,12.9v11C113.5,43.6,112.7,44.5,111.7,44.5z"/>
		<path class="st0" d="M130.1,44.4c-7.1,0-12.8-5.8-12.8-12.8c0-7.1,5.8-12.8,12.8-12.8c7.1,0,12.8,5.8,12.8,12.8
			C142.9,38.6,137.2,44.4,130.1,44.4z M130.1,22.4c-5,0-9.2,4.1-9.2,9.2c0,5,4.1,9.2,9.2,9.2c5,0,9.2-4.1,9.2-9.2
			C139.2,26.5,135.1,22.4,130.1,22.4z"/>
		<path class="st0" d="M170.2,44.4c-0.8,0-1.5-0.5-1.8-1.2L162,25.9l-6.4,17.3c-0.3,0.7-1.1,1.2-1.8,1.2c-0.8,0-1.5-0.5-1.8-1.2
			l-8.2-21.8c-0.2-0.5-0.2-1,0-1.5c0.2-0.4,0.6-0.8,1-0.9c0.2-0.1,0.5-0.1,0.7-0.1c0.8,0,1.4,0.5,1.7,1.2l6.5,17.4l6.5-17.3
			c0.1-0.4,0.4-1,1.1-1.2l0,0c0.2-0.1,0.3-0.1,0.5-0.1h0.3c0,0,0.1,0,0.1,0l0.1,0.1l0.2,0c0,0,0.1,0,0.1,0c0.5,0.2,0.8,0.6,1,1.1
			l0,0l6.5,17.3l6.5-17.4c0.3-0.7,1-1.2,1.7-1.2c0.2,0,0.5,0,0.7,0.1c0.9,0.3,1.4,1.4,1.1,2.4L172,43.2
			C171.7,43.9,171,44.4,170.2,44.4z"/>
	</g>
	<g>
		<path class="st1" d="M25.8,51.8c-14,0-25.5-11.4-25.5-25.5c0-0.8,0.7-1.5,1.5-1.5s1.5,0.7,1.5,1.5c0,12.4,10.1,22.6,22.6,22.6
			c12.4,0,22.6-10.1,22.6-22.6c0-12.4-10.1-22.6-22.6-22.6c-0.8,0-1.5-0.7-1.5-1.5s0.7-1.5,1.5-1.5c14,0,25.5,11.4,25.5,25.5
			C51.3,40.4,39.8,51.8,25.8,51.8z"/>
		<path class="st0" d="M25.8,43.9c-9.7,0-17.5-7.9-17.5-17.5c0-9.7,7.9-17.5,17.5-17.5c9.7,0,17.5,7.9,17.5,17.5
			c0,0.8-0.7,1.5-1.5,1.5c-0.8,0-1.5-0.7-1.5-1.5c0-8.1-6.6-14.6-14.6-14.6c-8.1,0-14.6,6.6-14.6,14.6c0,8.1,6.6,14.6,14.6,14.6
			c0.8,0,1.5,0.7,1.5,1.5C27.3,43.2,26.6,43.9,25.8,43.9z"/>
		<path class="st2" d="M25.8,35.9c-5.3,0-9.5-4.3-9.5-9.5c0-0.8,0.7-1.5,1.5-1.5s1.5,0.7,1.5,1.5c0,3.7,3,6.6,6.6,6.6s6.6-3,6.6-6.6
			c0-3.7-3-6.6-6.6-6.6c-0.8,0-1.5-0.7-1.5-1.5c0-0.8,0.7-1.5,1.5-1.5c5.3,0,9.5,4.3,9.5,9.5C35.3,31.6,31.1,35.9,25.8,35.9z"/>
	</g>
</g>
</svg>
