<?xml version="1.0" encoding="UTF-8" standalone="no"?>
<!-- Created with Inkscape (http://www.inkscape.org/) -->

<svg
   xmlns:dc="http://purl.org/dc/elements/1.1/"
   xmlns:cc="http://creativecommons.org/ns#"
   xmlns:rdf="http://www.w3.org/1999/02/22-rdf-syntax-ns#"
   xmlns:svg="http://www.w3.org/2000/svg"
   xmlns="http://www.w3.org/2000/svg"
   xmlns:sodipodi="http://sodipodi.sourceforge.net/DTD/sodipodi-0.dtd"
   xmlns:inkscape="http://www.inkscape.org/namespaces/inkscape"
   width="1592.8031"
   height="728.05548"
   id="svg5113"
   version="1.1"
   inkscape:version="0.48.4 r9939"
   sodipodi:docname="logo_webaddr_thingz.svg"
   inkscape:export-filename="/home/morrison/Inkscape/logo_webaddr_thingz.png"
   inkscape:export-xdpi="100"
   inkscape:export-ydpi="100">
  <defs
     id="defs5115" />
  <sodipodi:namedview
     id="base"
     pagecolor="#ffffff"
     bordercolor="#666666"
     borderopacity="1.0"
     inkscape:pageopacity="1"
     inkscape:pageshadow="2"
     inkscape:zoom="0.35"
     inkscape:cx="1032.4938"
     inkscape:cy="150.83745"
     inkscape:document-units="px"
     inkscape:current-layer="layer1"
     showgrid="false"
     fit-margin-top="150"
     fit-margin-left="150"
     fit-margin-right="150"
     fit-margin-bottom="150"
     inkscape:window-width="1366"
     inkscape:window-height="712"
     inkscape:window-x="0"
     inkscape:window-y="27"
     inkscape:window-maximized="1" />
  <metadata
     id="metadata5118">
    <rdf:RDF>
      <cc:Work
         rdf:about="">
        <dc:format>image/svg+xml</dc:format>
        <dc:type
           rdf:resource="http://purl.org/dc/dcmitype/StillImage" />
        <dc:title></dc:title>
      </cc:Work>
    </rdf:RDF>
  </metadata>
  <g
     inkscape:label="Calque 1"
     inkscape:groupmode="layer"
     id="layer1"
     transform="translate(565.25343,27.42919)">
    <g
       id="g6525"
       transform="translate(-29.300002,0)">
      <path
         style="fill:none;stroke:#e50e0e;stroke-width:26.73547554;stroke-linecap:butt;stroke-linejoin:miter;stroke-miterlimit:4;stroke-opacity:1;stroke-dasharray:none"
         d="m -141.98196,230.58484 c -72.18449,20.86564 -111.60505,0.77635 -166.47618,0"
         id="path15768-9-3-0-4-9-6-8-1-5-6-7-9-0-1-3"
         inkscape:connector-curvature="0"
         sodipodi:nodetypes="cc" />
      <path
         style="fill:none;stroke:#e50e0e;stroke-width:26.73547554;stroke-linecap:butt;stroke-linejoin:miter;stroke-miterlimit:4;stroke-opacity:1;stroke-dasharray:none"
         d="m -227.03869,430.22245 c -4.84803,-63.49548 -17.80633,-122.48896 0,-190.11978"
         id="path15768-9-3-0-4-9-6-1-6-2-3-7-9-8-6-2-29"
         inkscape:connector-curvature="0"
         sodipodi:nodetypes="cc" />
      <path
         sodipodi:type="arc"
         style="fill:#ffffff;fill-opacity:1;stroke:#e50e0e;stroke-width:10.57800007;stroke-linecap:round;stroke-linejoin:round;stroke-miterlimit:4;stroke-opacity:1;stroke-dasharray:none;stroke-dashoffset:2.33799994"
         id="path15762-2-5-3-4-02-45-7-9-2-9-0-6-8-3-9-0-4"
         sodipodi:cx="417.26492"
         sodipodi:cy="995.45837"
         sodipodi:rx="22.726847"
         sodipodi:ry="22.726847"
         d="m 439.99177,995.45837 c 0,12.55173 -10.17516,22.72683 -22.72685,22.72683 -12.55169,0 -22.72684,-10.1751 -22.72684,-22.72683 0,-12.55169 10.17515,-22.72684 22.72684,-22.72684 12.55169,0 22.72685,10.17515 22.72685,22.72684 z"
         transform="matrix(0,0.80914184,-0.80914184,0,578.79204,-97.220241)" />
      <path
         sodipodi:type="arc"
         style="fill:#ffffff;fill-opacity:1;stroke:#e50e0e;stroke-width:10.57800007;stroke-linecap:round;stroke-linejoin:round;stroke-miterlimit:4;stroke-opacity:1;stroke-dasharray:none;stroke-dashoffset:2.33799994"
         id="path15762-2-5-3-4-02-45-7-9-3-9-6-9-6-8-1-7-3-2"
         sodipodi:cx="417.26492"
         sodipodi:cy="995.45837"
         sodipodi:rx="22.726847"
         sodipodi:ry="22.726847"
         d="m 439.99177,995.45837 c 0,12.55173 -10.17516,22.72683 -22.72685,22.72683 -12.55169,0 -22.72684,-10.1751 -22.72684,-22.72683 0,-12.55169 10.17515,-22.72684 22.72684,-22.72684 12.55169,0 22.72685,10.17515 22.72685,22.72684 z"
         transform="matrix(0,0.80914184,-0.80914184,0,577.70074,95.929829)" />
      <path
         sodipodi:type="arc"
         style="fill:#ffffff;fill-opacity:1;stroke:#e50e0e;stroke-width:10.57800007;stroke-linecap:round;stroke-linejoin:round;stroke-miterlimit:4;stroke-opacity:1;stroke-dasharray:none;stroke-dashoffset:2.33799994"
         id="path15762-2-5-3-4-02-45-7-9-6-6-9-1-6-2-0-3-8-3"
         sodipodi:cx="417.26492"
         sodipodi:cy="995.45837"
         sodipodi:rx="22.726847"
         sodipodi:ry="22.726847"
         d="m 439.99177,995.45837 c 0,12.55173 -10.17516,22.72683 -22.72685,22.72683 -12.55169,0 -22.72684,-10.1751 -22.72684,-22.72683 0,-12.55169 10.17515,-22.72684 22.72684,-22.72684 12.55169,0 22.72685,10.17515 22.72685,22.72684 z"
         transform="matrix(0,0.80914184,-0.80914184,0,657.36154,-104.13149)" />
      <path
         sodipodi:type="arc"
         style="fill:#ffffff;fill-opacity:1;stroke:#e50e0e;stroke-width:10.57800007;stroke-linecap:round;stroke-linejoin:round;stroke-miterlimit:4;stroke-opacity:1;stroke-dasharray:none;stroke-dashoffset:2.33799994"
         id="path15762-2-5-3-4-02-45-7-9-5-8-3-8-3-1-8-0-5-4"
         sodipodi:cx="417.26492"
         sodipodi:cy="995.45837"
         sodipodi:rx="22.726847"
         sodipodi:ry="22.726847"
         d="m 439.99177,995.45837 c 0,12.55173 -10.17516,22.72683 -22.72685,22.72683 -12.55169,0 -22.72684,-10.1751 -22.72684,-22.72683 0,-12.55169 10.17515,-22.72684 22.72684,-22.72684 12.55169,0 22.72685,10.17515 22.72685,22.72684 z"
         transform="matrix(0,0.80914184,-0.80914184,0,504.58734,-106.67772)" />
      <path
         style="fill:none;stroke:#38bbad;stroke-width:26.73547554;stroke-linecap:butt;stroke-linejoin:miter;stroke-miterlimit:4;stroke-opacity:1;stroke-dasharray:none"
         d="m -81.176067,233.19117 c 22.54437,73.79933 3.81222,140.71924 0,210.12581"
         id="path15768-4-67-7-6-29-7-9-8-7-6-2-8"
         inkscape:connector-curvature="0"
         sodipodi:nodetypes="cc" />
      <path
         style="fill:none;stroke:#38bbad;stroke-width:26.73547554;stroke-linecap:butt;stroke-linejoin:miter;stroke-miterlimit:4;stroke-opacity:1;stroke-dasharray:none"
         d="m 58.866893,233.19117 c -0.7407,70.14777 -29.86582,144.35043 0,210.12581"
         id="path15768-4-67-7-6-2-7-6-3-1-4-7-9-5"
         inkscape:connector-curvature="0"
         sodipodi:nodetypes="cc" />
      <path
         style="fill:none;stroke:#38bbad;stroke-width:26.73547554;stroke-linecap:butt;stroke-linejoin:miter;stroke-miterlimit:4;stroke-opacity:1;stroke-dasharray:none"
         d="m 62.080243,341.8915 c -41.97979,2.42758 -70.9017201,27.70661 -130.10119,0"
         id="path15768-4-67-7-6-26-0-0-1-3-2-5-7-67"
         inkscape:connector-curvature="0"
         sodipodi:nodetypes="cc" />
      <path
         sodipodi:type="arc"
         style="fill:#ffffff;fill-opacity:1;stroke:#38bbad;stroke-width:10.57800007;stroke-linecap:round;stroke-linejoin:round;stroke-miterlimit:4;stroke-opacity:1;stroke-dasharray:none;stroke-dashoffset:2.33799994"
         id="path15762-2-5-3-4-02-45-7-2-2-4-5-6-1-5-0"
         sodipodi:cx="417.26492"
         sodipodi:cy="995.45837"
         sodipodi:rx="22.726847"
         sodipodi:ry="22.726847"
         d="m 439.99177,995.45837 c 0,12.55173 -10.17516,22.72683 -22.72685,22.72683 -12.55169,0 -22.72684,-10.1751 -22.72684,-22.72683 0,-12.55169 10.17515,-22.72684 22.72684,-22.72684 12.55169,0 22.72685,10.17515 22.72685,22.72684 z"
         transform="matrix(0,0.80914184,-0.80914184,0,735.02144,5.1745886)" />
      <path
         sodipodi:type="arc"
         style="fill:#ffffff;fill-opacity:1;stroke:#38bbad;stroke-width:10.57800007;stroke-linecap:round;stroke-linejoin:round;stroke-miterlimit:4;stroke-opacity:1;stroke-dasharray:none;stroke-dashoffset:2.33799994"
         id="path15762-2-5-3-4-02-45-7-5-8-1-98-1-7-6-4-3"
         sodipodi:cx="417.26492"
         sodipodi:cy="995.45837"
         sodipodi:rx="22.726847"
         sodipodi:ry="22.726847"
         d="m 439.99177,995.45837 c 0,12.55173 -10.17516,22.72683 -22.72685,22.72683 -12.55169,0 -22.72684,-10.1751 -22.72684,-22.72683 0,-12.55169 10.17515,-22.72684 22.72684,-22.72684 12.55169,0 22.72685,10.17515 22.72685,22.72684 z"
         transform="matrix(0,0.80914184,-0.80914184,0,852.33004,4.2650786)" />
      <path
         sodipodi:type="arc"
         style="fill:#ffffff;fill-opacity:1;stroke:#38bbad;stroke-width:10.57651138;stroke-linecap:round;stroke-linejoin:round;stroke-miterlimit:4;stroke-opacity:1;stroke-dasharray:none;stroke-dashoffset:2.33799994"
         id="path15762-2-5-3-4-02-45-7-9-6-5-7-3-1-6-0-5-5-7"
         sodipodi:cx="417.26492"
         sodipodi:cy="995.45837"
         sodipodi:rx="22.726847"
         sodipodi:ry="22.726847"
         d="m 439.99177,995.45837 c 0,12.55173 -10.17516,22.72683 -22.72685,22.72683 -12.55169,0 -22.72684,-10.1751 -22.72684,-22.72683 0,-12.55169 10.17515,-22.72684 22.72684,-22.72684 12.55169,0 22.72685,10.17515 22.72685,22.72684 z"
         transform="matrix(0,0.80914184,-0.80914184,0,723.56334,-104.8592)" />
      <path
         sodipodi:type="arc"
         style="fill:#ffffff;fill-opacity:1;stroke:#38bbad;stroke-width:10.57800007;stroke-linecap:round;stroke-linejoin:round;stroke-miterlimit:4;stroke-opacity:1;stroke-dasharray:none;stroke-dashoffset:2.33799994"
         id="path15762-2-5-3-4-02-45-7-9-6-0-4-2-3-5-6-5-9-6"
         sodipodi:cx="417.26492"
         sodipodi:cy="995.45837"
         sodipodi:rx="22.726847"
         sodipodi:ry="22.726847"
         d="m 439.99177,995.45837 c 0,12.55173 -10.17516,22.72683 -22.72685,22.72683 -12.55169,0 -22.72684,-10.1751 -22.72684,-22.72683 0,-12.55169 10.17515,-22.72684 22.72684,-22.72684 12.55169,0 22.72685,10.17515 22.72685,22.72684 z"
         transform="matrix(0,0.80914184,-0.80914184,0,863.97024,-102.67682)" />
      <path
         sodipodi:type="arc"
         style="fill:#ffffff;fill-opacity:1;stroke:#38bbad;stroke-width:10.57800007;stroke-linecap:round;stroke-linejoin:round;stroke-miterlimit:4;stroke-opacity:1;stroke-dasharray:none;stroke-dashoffset:2.33799994"
         id="path15762-2-5-3-4-02-45-7-9-6-4-7-3-7-2-2-9-0-59"
         sodipodi:cx="417.26492"
         sodipodi:cy="995.45837"
         sodipodi:rx="22.726847"
         sodipodi:ry="22.726847"
         d="m 439.99177,995.45837 c 0,12.55173 -10.17516,22.72683 -22.72685,22.72683 -12.55169,0 -22.72684,-10.1751 -22.72684,-22.72683 0,-12.55169 10.17515,-22.72684 22.72684,-22.72684 12.55169,0 22.72685,10.17515 22.72685,22.72684 z"
         transform="matrix(0,0.80914184,-0.80914184,0,863.60634,101.3859)" />
      <path
         sodipodi:type="arc"
         style="fill:#ffffff;fill-opacity:1;stroke:#38bbad;stroke-width:10.57800007;stroke-linecap:round;stroke-linejoin:round;stroke-miterlimit:4;stroke-opacity:1;stroke-dasharray:none;stroke-dashoffset:2.33799994"
         id="path15762-2-5-3-4-02-45-7-9-6-2-3-1-4-2-5-0-2-6"
         sodipodi:cx="417.26492"
         sodipodi:cy="995.45837"
         sodipodi:rx="22.726847"
         sodipodi:ry="22.726847"
         d="m 439.99177,995.45837 c 0,12.55173 -10.17516,22.72683 -22.72685,22.72683 -12.55169,0 -22.72684,-10.1751 -22.72684,-22.72683 0,-12.55169 10.17515,-22.72684 22.72684,-22.72684 12.55169,0 22.72685,10.17515 22.72685,22.72684 z"
         transform="matrix(0,0.80914184,-0.80914184,0,724.29084,100.65844)" />
      <path
         style="fill:none;stroke:#5cbb38;stroke-width:26.73547554;stroke-linecap:butt;stroke-linejoin:miter;stroke-miterlimit:4;stroke-opacity:1;stroke-dasharray:none"
         d="m 162.50556,246.28646 c -13.99844,63.14155 -10.11798,122.70743 0,181.0259"
         id="path15768-8-0-9-3-6-9-1-5-8-7-6-1"
         inkscape:connector-curvature="0"
         sodipodi:nodetypes="cc" />
      <path
         sodipodi:type="arc"
         style="fill:#ffffff;fill-opacity:1;stroke:#5cbb38;stroke-width:10.57800007;stroke-linecap:round;stroke-linejoin:round;stroke-miterlimit:4;stroke-opacity:1;stroke-dasharray:none;stroke-dashoffset:2.33799994"
         id="path15762-2-5-3-4-02-45-7-9-6-0-3-4-2-3-6-1-9-2-1"
         sodipodi:cx="417.26492"
         sodipodi:cy="995.45837"
         sodipodi:rx="22.726847"
         sodipodi:ry="22.726847"
         d="m 439.99177,995.45837 c 0,12.55173 -10.17516,22.72683 -22.72685,22.72683 -12.55169,0 -22.72684,-10.1751 -22.72684,-22.72683 0,-12.55169 10.17515,-22.72684 22.72684,-22.72684 12.55169,0 22.72685,10.17515 22.72685,22.72684 z"
         transform="matrix(0,0.80914184,-0.80914184,0,967.97274,-102.67657)" />
      <path
         sodipodi:type="arc"
         style="fill:#ffffff;fill-opacity:1;stroke:#5cbb38;stroke-width:10.57800007;stroke-linecap:round;stroke-linejoin:round;stroke-miterlimit:4;stroke-opacity:1;stroke-dasharray:none;stroke-dashoffset:2.33799994"
         id="path15762-2-5-3-4-02-45-7-9-6-0-9-0-1-3-4-9-1-6-0"
         sodipodi:cx="417.26492"
         sodipodi:cy="995.45837"
         sodipodi:rx="22.726847"
         sodipodi:ry="22.726847"
         d="m 439.99177,995.45837 c 0,12.55173 -10.17516,22.72683 -22.72685,22.72683 -12.55169,0 -22.72684,-10.1751 -22.72684,-22.72683 0,-12.55169 10.17515,-22.72684 22.72684,-22.72684 12.55169,0 22.72685,10.17515 22.72685,22.72684 z"
         transform="matrix(0,0.80914184,-0.80914184,0,967.97274,101.55522)" />
      <path
         sodipodi:nodetypes="cc"
         inkscape:connector-curvature="0"
         id="path15768-36-9-4-0-8-3-5-9-1-2"
         d="m 251.20062,241.57516 c 18.07602,63.92376 8.03287,130.56918 0,190.13328"
         style="fill:none;stroke:#ffa401;stroke-width:23.43130493;stroke-linecap:butt;stroke-linejoin:miter;stroke-miterlimit:4;stroke-opacity:1;stroke-dasharray:none" />
      <path
         sodipodi:nodetypes="cc"
         inkscape:connector-curvature="0"
         id="path15768-36-9-8-0-1-6-9-2-2-9-9"
         d="m 382.37684,242.86126 c -19.3018,34.42511 -0.025,126.72641 0,190.13328"
         style="fill:none;stroke:#ffa401;stroke-width:23.43130493;stroke-linecap:butt;stroke-linejoin:miter;stroke-miterlimit:4;stroke-opacity:1;stroke-dasharray:none" />
      <path
         sodipodi:nodetypes="cc"
         inkscape:connector-curvature="0"
         id="path15768-36-9-0-8-7-9-1-4-6-2-8"
         d="m 261.48894,245.43322 c 13.7296,-5.26154 41.1798,108.59771 119.602,192.70548"
         style="fill:none;stroke:#ffa401;stroke-width:23.43130493;stroke-linecap:butt;stroke-linejoin:miter;stroke-miterlimit:4;stroke-opacity:1;stroke-dasharray:none" />
      <path
         sodipodi:type="arc"
         style="fill:#ffffff;fill-opacity:1;stroke:#ffa401;stroke-width:10.57800007;stroke-linecap:round;stroke-linejoin:round;stroke-miterlimit:4;stroke-opacity:1;stroke-dasharray:none;stroke-dashoffset:2.33799994"
         id="path15762-2-5-3-4-02-45-7-9-6-0-3-8-9-0-5-8-8-3-5-6"
         sodipodi:cx="417.26492"
         sodipodi:cy="995.45837"
         sodipodi:rx="22.726847"
         sodipodi:ry="22.726847"
         d="m 439.99177,995.45837 c 0,12.55173 -10.17516,22.72683 -22.72685,22.72683 -12.55169,0 -22.72684,-10.1751 -22.72684,-22.72683 0,-12.55169 10.17515,-22.72684 22.72684,-22.72684 12.55169,0 22.72685,10.17515 22.72685,22.72684 z"
         transform="matrix(0,0.80914184,-0.80914184,0,1057.9536,-98.724051)" />
      <path
         sodipodi:type="arc"
         style="fill:#ffffff;fill-opacity:1;stroke:#ffa401;stroke-width:10.57800007;stroke-linecap:round;stroke-linejoin:round;stroke-miterlimit:4;stroke-opacity:1;stroke-dasharray:none;stroke-dashoffset:2.33799994"
         id="path15762-2-5-3-4-02-45-7-9-6-0-3-0-6-7-8-8-4-9-3-2"
         sodipodi:cx="417.26492"
         sodipodi:cy="995.45837"
         sodipodi:rx="22.726847"
         sodipodi:ry="22.726847"
         d="m 439.99177,995.45837 c 0,12.55173 -10.17516,22.72683 -22.72685,22.72683 -12.55169,0 -22.72684,-10.1751 -22.72684,-22.72683 0,-12.55169 10.17515,-22.72684 22.72684,-22.72684 12.55169,0 22.72685,10.17515 22.72685,22.72684 z"
         transform="matrix(0,0.80914184,-0.80914184,0,1186.5581,-101.296)" />
      <path
         sodipodi:type="arc"
         style="fill:#ffffff;fill-opacity:1;stroke:#ffa401;stroke-width:10.57800007;stroke-linecap:round;stroke-linejoin:round;stroke-miterlimit:4;stroke-opacity:1;stroke-dasharray:none;stroke-dashoffset:2.33799994"
         id="path15762-2-5-3-4-02-45-7-9-6-0-3-7-4-9-3-4-0-8-6-6"
         sodipodi:cx="417.26492"
         sodipodi:cy="995.45837"
         sodipodi:rx="22.726847"
         sodipodi:ry="22.726847"
         d="m 439.99177,995.45837 c 0,12.55173 -10.17516,22.72683 -22.72685,22.72683 -12.55169,0 -22.72684,-10.1751 -22.72684,-22.72683 0,-12.55169 10.17515,-22.72684 22.72684,-22.72684 12.55169,0 22.72685,10.17515 22.72685,22.72684 z"
         transform="matrix(0,0.80914184,-0.80914184,0,1185.2718,92.896499)" />
      <path
         sodipodi:type="arc"
         style="fill:#ffffff;fill-opacity:1;stroke:#ffa401;stroke-width:10.57800007;stroke-linecap:round;stroke-linejoin:round;stroke-miterlimit:4;stroke-opacity:1;stroke-dasharray:none;stroke-dashoffset:2.33799994"
         id="path15762-2-5-3-4-02-45-7-9-6-0-3-9-6-0-0-3-2-2-0-2"
         sodipodi:cx="417.26492"
         sodipodi:cy="995.45837"
         sodipodi:rx="22.726847"
         sodipodi:ry="22.726847"
         d="m 439.99177,995.45837 c 0,12.55173 -10.17516,22.72683 -22.72685,22.72683 -12.55169,0 -22.72684,-10.1751 -22.72684,-22.72683 0,-12.55169 10.17515,-22.72684 22.72684,-22.72684 12.55169,0 22.72685,10.17515 22.72685,22.72684 z"
         transform="matrix(0,0.80914184,-0.80914184,0,1056.6678,94.182599)" />
      <path
         style="fill:none;stroke:#423f67;stroke-width:24.1892395;stroke-linecap:butt;stroke-linejoin:miter;stroke-miterlimit:4;stroke-opacity:1;stroke-dasharray:none;stroke-dashoffset:0"
         d="m 468.34334,246.2694 c 4.1908,44.387 -19.6315,75.41976 0,192.12138"
         id="path16967-5-4-7-8-2-9-0-3-7"
         inkscape:connector-curvature="0"
         sodipodi:nodetypes="cc" />
      <path
         style="fill:none;stroke:#423f67;stroke-width:24.1892395;stroke-linecap:butt;stroke-linejoin:miter;stroke-miterlimit:4;stroke-opacity:1;stroke-dasharray:none;stroke-dashoffset:0"
         d="m 456.44194,244.11809 c 95.8858,-21.13325 113.549,-6.16393 150.2904,0"
         id="path16967-5-6-1-6-4-7-7-5-4-7"
         inkscape:connector-curvature="0"
         sodipodi:nodetypes="cc" />
      <path
         style="fill:none;stroke:#423f67;stroke-width:24.1892395;stroke-linecap:butt;stroke-linejoin:miter;stroke-miterlimit:4;stroke-opacity:1;stroke-dasharray:none;stroke-dashoffset:0"
         d="m 455.53244,431.44821 c 78.3144,18.11087 131.3321,20.6543 146.6531,0"
         id="path16967-5-6-2-7-5-0-3-5-7-0-33"
         inkscape:connector-curvature="0"
         sodipodi:nodetypes="cc" />
      <path
         style="fill:none;stroke:#423f67;stroke-width:24.1892395;stroke-linecap:butt;stroke-linejoin:miter;stroke-miterlimit:4;stroke-opacity:1;stroke-dasharray:none;stroke-dashoffset:0"
         d="m 605.24614,355.39368 c 17.5547,36.5064 5.2287,61.06051 0,88.45343"
         id="path16967-5-3-1-5-4-4-6-4-5-9"
         inkscape:connector-curvature="0"
         sodipodi:nodetypes="cc" />
      <path
         style="fill:none;stroke:#423f67;stroke-width:24.1892395;stroke-linecap:butt;stroke-linejoin:miter;stroke-miterlimit:4;stroke-opacity:1;stroke-dasharray:none;stroke-dashoffset:0"
         d="m 530.10114,353.24262 c 37.1302,-15.83937 62.2434,-4.64052 90.2719,0"
         id="path16967-5-3-3-7-0-0-1-9-4-5-2"
         inkscape:connector-curvature="0"
         sodipodi:nodetypes="cc" />
      <path
         sodipodi:type="arc"
         style="fill:#ffffff;fill-opacity:1;stroke:#423f67;stroke-width:10.57800007;stroke-linecap:round;stroke-linejoin:round;stroke-miterlimit:4;stroke-opacity:1;stroke-dasharray:none;stroke-dashoffset:2.33799994"
         id="path15762-2-5-3-4-02-45-7-9-6-0-3-0-0-52-8-6-5-4-5-2-9"
         sodipodi:cx="417.26492"
         sodipodi:cy="995.45837"
         sodipodi:rx="22.726847"
         sodipodi:ry="22.726847"
         d="m 439.99177,995.45837 c 0,12.55173 -10.17516,22.72683 -22.72685,22.72683 -12.55169,0 -22.72684,-10.1751 -22.72684,-22.72683 0,-12.55169 10.17515,-22.72684 22.72684,-22.72684 12.55169,0 22.72685,10.17515 22.72685,22.72684 z"
         transform="matrix(0,0.80914184,-0.80914184,0,1273.5803,-93.508341)" />
      <path
         sodipodi:type="arc"
         style="fill:#ffffff;fill-opacity:1;stroke:#423f67;stroke-width:10.57800007;stroke-linecap:round;stroke-linejoin:round;stroke-miterlimit:4;stroke-opacity:1;stroke-dasharray:none;stroke-dashoffset:2.33799994"
         id="path15762-2-5-3-4-02-45-7-9-6-0-3-0-4-4-3-1-3-5-6-6-2"
         sodipodi:cx="417.26492"
         sodipodi:cy="995.45837"
         sodipodi:rx="22.726847"
         sodipodi:ry="22.726847"
         d="m 439.99177,995.45837 c 0,12.55173 -10.17516,22.72683 -22.72685,22.72683 -12.55169,0 -22.72684,-10.1751 -22.72684,-22.72683 0,-12.55169 10.17515,-22.72684 22.72684,-22.72684 12.55169,0 22.72685,10.17515 22.72685,22.72684 z"
         transform="matrix(0,0.80914184,-0.80914184,0,1272.489,95.640569)" />
      <path
         sodipodi:type="arc"
         style="fill:#ffffff;fill-opacity:1;stroke:#423f67;stroke-width:10.57800007;stroke-linecap:round;stroke-linejoin:round;stroke-miterlimit:4;stroke-opacity:1;stroke-dasharray:none;stroke-dashoffset:2.33799994"
         id="path15762-2-5-3-4-02-45-7-9-6-0-3-0-7-3-1-6-0-9-2-7-5"
         sodipodi:cx="417.26492"
         sodipodi:cy="995.45837"
         sodipodi:rx="22.726847"
         sodipodi:ry="22.726847"
         d="m 439.99177,995.45837 c 0,12.55173 -10.17516,22.72683 -22.72685,22.72683 -12.55169,0 -22.72684,-10.1751 -22.72684,-22.72683 0,-12.55169 10.17515,-22.72684 22.72684,-22.72684 12.55169,0 22.72685,10.17515 22.72685,22.72684 z"
         transform="matrix(0,0.80914184,-0.80914184,0,1408.8944,95.640569)" />
      <path
         sodipodi:type="arc"
         style="fill:#ffffff;fill-opacity:1;stroke:#423f67;stroke-width:10.57800007;stroke-linecap:round;stroke-linejoin:round;stroke-miterlimit:4;stroke-opacity:1;stroke-dasharray:none;stroke-dashoffset:2.33799994"
         id="path15762-2-5-3-4-02-45-7-9-6-0-3-0-76-9-5-5-3-7-4-2-3"
         sodipodi:cx="417.26492"
         sodipodi:cy="995.45837"
         sodipodi:rx="22.726847"
         sodipodi:ry="22.726847"
         d="m 439.99177,995.45837 c 0,12.55173 -10.17516,22.72683 -22.72685,22.72683 -12.55169,0 -22.72684,-10.1751 -22.72684,-22.72683 0,-12.55169 10.17515,-22.72684 22.72684,-22.72684 12.55169,0 22.72685,10.17515 22.72685,22.72684 z"
         transform="matrix(0,0.80914184,-0.80914184,0,1410.7132,14.706679)" />
      <path
         sodipodi:type="arc"
         style="fill:#ffffff;fill-opacity:1;stroke:#423f67;stroke-width:10.57800007;stroke-linecap:round;stroke-linejoin:round;stroke-miterlimit:4;stroke-opacity:1;stroke-dasharray:none;stroke-dashoffset:2.33799994"
         id="path15762-2-5-3-4-02-45-7-9-6-0-3-0-5-1-8-9-3-6-3-9-2"
         sodipodi:cx="417.26492"
         sodipodi:cy="995.45837"
         sodipodi:rx="22.726847"
         sodipodi:ry="22.726847"
         d="m 439.99177,995.45837 c 0,12.55173 -10.17516,22.72683 -22.72685,22.72683 -12.55169,0 -22.72684,-10.1751 -22.72684,-22.72683 0,-12.55169 10.17515,-22.72684 22.72684,-22.72684 12.55169,0 22.72685,10.17515 22.72685,22.72684 z"
         transform="matrix(0,0.80914184,-0.80914184,0,1337.9634,13.797419)" />
      <path
         sodipodi:type="arc"
         style="fill:#ffffff;fill-opacity:1;stroke:#423f67;stroke-width:10.57800007;stroke-linecap:round;stroke-linejoin:round;stroke-miterlimit:4;stroke-opacity:1;stroke-dasharray:none;stroke-dashoffset:2.33799994"
         id="path15762-2-5-3-4-02-45-7-9-6-0-3-0-3-5-4-1-4-9-5-8-3"
         sodipodi:cx="417.26492"
         sodipodi:cy="995.45837"
         sodipodi:rx="22.726847"
         sodipodi:ry="22.726847"
         d="m 439.99177,995.45837 c 0,12.55173 -10.17516,22.72683 -22.72685,22.72683 -12.55169,0 -22.72684,-10.1751 -22.72684,-22.72683 0,-12.55169 10.17515,-22.72684 22.72684,-22.72684 12.55169,0 22.72685,10.17515 22.72685,22.72684 z"
         transform="matrix(0,0.80914184,-0.80914184,0,1408.8944,-93.508341)" />
      <path
         style="fill:none;stroke:#2e907a;stroke-width:26.73547554;stroke-linecap:butt;stroke-linejoin:miter;stroke-miterlimit:4;stroke-opacity:1;stroke-dasharray:none"
         d="m 671.87214,242.29931 c 47.4336,-5.42195 96.6714,-13.24934 130.1017,0 -19.7015,100.47522 -105.5089,121.15371 -112.3381,191.33153 41.2248,26.51268 82.4494,4.10912 123.6742,0"
         id="path15768-7-5-7-1-6-2-2-4-7-6-4-8-9"
         inkscape:connector-curvature="0"
         sodipodi:nodetypes="cccc"
         inkscape:transform-center-y="-5.25" />
      <path
         sodipodi:type="arc"
         style="fill:#ffffff;fill-opacity:1;stroke:#2e907a;stroke-width:10.57800007;stroke-linecap:round;stroke-linejoin:round;stroke-miterlimit:4;stroke-opacity:1;stroke-dasharray:none;stroke-dashoffset:2.33799994"
         id="path15762-2-5-3-4-02-45-7-9-6-0-3-0-0-6-4-3-2-1-5-2-4-0"
         sodipodi:cx="417.26492"
         sodipodi:cy="995.45837"
         sodipodi:rx="22.726847"
         sodipodi:ry="22.726847"
         d="m 439.99177,995.45837 c 0,12.55173 -10.17516,22.72683 -22.72685,22.72683 -12.55169,0 -22.72684,-10.1751 -22.72684,-22.72683 0,-12.55169 10.17515,-22.72684 22.72684,-22.72684 12.55169,0 22.72685,10.17515 22.72685,22.72684 z"
         transform="matrix(0,0.80914184,-0.80914184,0,1486.0092,-96.782031)" />
      <path
         sodipodi:type="arc"
         style="fill:#ffffff;fill-opacity:1;stroke:#2e907a;stroke-width:10.57800007;stroke-linecap:round;stroke-linejoin:round;stroke-miterlimit:4;stroke-opacity:1;stroke-dasharray:none;stroke-dashoffset:2.33799994"
         id="path15762-2-5-3-4-02-45-7-9-6-0-3-0-0-2-8-3-3-5-5-4-7-3"
         sodipodi:cx="417.26492"
         sodipodi:cy="995.45837"
         sodipodi:rx="22.726847"
         sodipodi:ry="22.726847"
         d="m 439.99177,995.45837 c 0,12.55173 -10.17516,22.72683 -22.72685,22.72683 -12.55169,0 -22.72684,-10.1751 -22.72684,-22.72683 0,-12.55169 10.17515,-22.72684 22.72684,-22.72684 12.55169,0 22.72685,10.17515 22.72685,22.72684 z"
         transform="matrix(0,0.80914184,-0.80914184,0,1616.2308,-94.235801)" />
      <path
         sodipodi:type="arc"
         style="fill:#ffffff;fill-opacity:1;stroke:#2e907a;stroke-width:10.57800007;stroke-linecap:round;stroke-linejoin:round;stroke-miterlimit:4;stroke-opacity:1;stroke-dasharray:none;stroke-dashoffset:2.33799994"
         id="path15762-2-5-3-4-02-45-7-9-6-0-3-0-0-69-6-5-8-0-0-1-5-4"
         sodipodi:cx="417.26492"
         sodipodi:cy="995.45837"
         sodipodi:rx="22.726847"
         sodipodi:ry="22.726847"
         d="m 439.99177,995.45837 c 0,12.55173 -10.17516,22.72683 -22.72685,22.72683 -12.55169,0 -22.72684,-10.1751 -22.72684,-22.72683 0,-12.55169 10.17515,-22.72684 22.72684,-22.72684 12.55169,0 22.72685,10.17515 22.72685,22.72684 z"
         transform="matrix(0,0.80914184,-0.80914184,0,1484.1904,97.823209)" />
      <path
         sodipodi:type="arc"
         style="fill:#ffffff;fill-opacity:1;stroke:#2e907a;stroke-width:10.57800007;stroke-linecap:round;stroke-linejoin:round;stroke-miterlimit:4;stroke-opacity:1;stroke-dasharray:none;stroke-dashoffset:2.33799994"
         id="path15762-2-5-3-4-02-45-7-9-6-0-3-0-0-5-7-9-2-6-1-5-9-7"
         sodipodi:cx="417.26492"
         sodipodi:cy="995.45837"
         sodipodi:rx="22.726847"
         sodipodi:ry="22.726847"
         d="m 439.99177,995.45837 c 0,12.55173 -10.17516,22.72683 -22.72685,22.72683 -12.55169,0 -22.72684,-10.1751 -22.72684,-22.72683 0,-12.55169 10.17515,-22.72684 22.72684,-22.72684 12.55169,0 22.72685,10.17515 22.72685,22.72684 z"
         transform="matrix(0,0.80914184,-0.80914184,0,1615.1395,96.368029)" />
      <path
         style="fill:none;stroke:#374c54;stroke-width:12.73117828;stroke-linecap:butt;stroke-linejoin:miter;stroke-miterlimit:4;stroke-opacity:0.60852715;stroke-dasharray:25.46235657, 25.46235657;stroke-dashoffset:6.36558914"
         d="m 249.3215,203.7852 0,-72.22525 -628.90934,0 0,100.46657 45.52203,0"
         id="path5477-5-0-3-9"
         inkscape:connector-curvature="0"
         sodipodi:nodetypes="ccccc" />
      <path
         style="fill:none;stroke:#374c54;stroke-width:12.73117828;stroke-linecap:butt;stroke-linejoin:miter;stroke-miterlimit:4;stroke-opacity:0.60852715;stroke-dasharray:25.46235657, 25.46235657;stroke-dashoffset:110.76125107"
         d="m -228.98147,468.91709 0,69.65304 391.3284,0 0,-69.65304"
         id="path5481-2-8-2-0"
         inkscape:connector-curvature="0"
         sodipodi:nodetypes="cccc" />
      <path
         style="fill:none;stroke:#374c54;stroke-width:12.73099995;stroke-linecap:butt;stroke-linejoin:miter;stroke-miterlimit:4;stroke-opacity:0.60852715;stroke-dasharray:25.46199989, 25.46199989;stroke-dashoffset:5.09239998"
         d="m 380.27264,206.35741 0,-77.4211 433.3681,0 0,79.94136"
         id="path5485-9-0-3-8"
         inkscape:connector-curvature="0"
         sodipodi:nodetypes="cccc" />
      <path
         style="fill:none;stroke:#374c54;stroke-width:12.73117828;stroke-linecap:butt;stroke-linejoin:miter;stroke-miterlimit:4;stroke-opacity:0.60852715;stroke-dasharray:25.46235657, 25.46235657;stroke-dashoffset:11.45806046"
         d="m 607.31794,466.34488 0,77.31772 293.1662,0 0,-109.03949 -56.5343,0"
         id="path5487-8-9-4-5"
         inkscape:connector-curvature="0"
         sodipodi:nodetypes="ccccc" />
      <path
         style="fill:none;stroke:#374c54;stroke-width:12.73117828;stroke-linecap:butt;stroke-linejoin:miter;stroke-miterlimit:4;stroke-opacity:0.60852715;stroke-dasharray:25.46235657, 25.46235657;stroke-dashoffset:14.00429611"
         d="m 378.40214,463.6693 0,80.59141 87.5027,0 c 0,0 1.8188,-47.85395 0,-80.59141"
         id="path5489-8-9-6-1"
         inkscape:connector-curvature="0"
         sodipodi:nodetypes="cccc" />
    </g>
  </g>
</svg>
