<svg id="logo" xmlns="http://www.w3.org/2000/svg" viewBox="0 0 620 620">
<title>logo_620x620_2</title>
<path id="sourire" d="M308.712,2.412c169.819,0,307.489,137.71,307.489,307.578S476.61,618.33,306.791,618.33,0.458,479.857.458,309.985,138.893,2.412,308.712,2.412Z" transform="translate(0 0)" style="fill:#fff"/>
<path id="inf" d="M310.042,0C138.889,0,.145,138.8.145,310.006A310.073,310.073,0,0,0,20.713,421.047a497.424,497.424,0,0,0,71.494,6.8,290.639,290.639,0,0,0,218.318-98.462A20.131,20.131,0,1,1,340.9,355.813q-0.1.12-.209,0.238A330.847,330.847,0,0,1,92.215,468.11c-11.273,0-32.839-1.129-50.459-3.052,85.625,148.227,275.168,198.958,423.35,113.3S664,303.116,578.377,154.889A309.869,309.869,0,0,0,310.042,0Z" transform="translate(0 0)" style="fill:#00a9a6"/><path id="sup" d="M20.753,421.112a512.365,512.365,0,0,0,72.117,6.736A289.927,289.927,0,0,0,310.7,329.386a19.985,19.985,0,0,1,27.8-2.134A308.833,308.833,0,0,0,374.884,6.9,296.966,296.966,0,0,0,311.392,0C140.867,0.1-.086,138.45.012,309.016v2.076C-0.345,348.666,7.465,385.972,20.753,421.112Z" transform="translate(0 0)" style="fill:#008c96"/></svg>