<?xml version="1.0" encoding="UTF-8" standalone="no"?>
<!-- Created with Inkscape (http://www.inkscape.org/) -->

<svg
   xmlns:dc="http://purl.org/dc/elements/1.1/"
   xmlns:cc="http://creativecommons.org/ns#"
   xmlns:rdf="http://www.w3.org/1999/02/22-rdf-syntax-ns#"
   xmlns:svg="http://www.w3.org/2000/svg"
   xmlns="http://www.w3.org/2000/svg"
   xmlns:sodipodi="http://sodipodi.sourceforge.net/DTD/sodipodi-0.dtd"
   xmlns:inkscape="http://www.inkscape.org/namespaces/inkscape"
   width="210mm"
   height="297mm"
   id="svg2"
   version="1.1"
   inkscape:version="0.48.4 r9939"
   sodipodi:docname="logo-verctorise.eps">
  <defs
     id="defs4" />
  <sodipodi:namedview
     id="base"
     pagecolor="#ffffff"
     bordercolor="#666666"
     borderopacity="1.0"
     inkscape:pageopacity="0.0"
     inkscape:pageshadow="2"
     inkscape:zoom="0.7"
     inkscape:cx="283.95904"
     inkscape:cy="755.76577"
     inkscape:document-units="px"
     inkscape:current-layer="layer1"
     showgrid="false"
     inkscape:window-width="1366"
     inkscape:window-height="745"
     inkscape:window-x="-8"
     inkscape:window-y="-8"
     inkscape:window-maximized="1" />
  <metadata
     id="metadata7">
    <rdf:RDF>
      <cc:Work
         rdf:about="">
        <dc:format>image/svg+xml</dc:format>
        <dc:type
           rdf:resource="http://purl.org/dc/dcmitype/StillImage" />
        <dc:title></dc:title>
      </cc:Work>
    </rdf:RDF>
  </metadata>
  <g
     inkscape:label="Calque 1"
     inkscape:groupmode="layer"
     id="layer1">
    <path
       inkscape:connector-curvature="0"
       id="path3085"
       d="m 69.686096,209.38733 0,-103.5 300.000004,0 300,0 0,103.5 0,103.5 -300,0 -300.000004,0 0,-103.5 z"
       style="fill:#fbfcfa" />
    <path
       inkscape:connector-curvature="0"
       id="path3083"
       d="m 70.31694,311.63733 c 2.823892,-4.71354 27.592325,-39.74946 36.23088,-51.25 21.43178,-28.53222 44.12236,-53.87421 55.60704,-62.10479 2.98939,-2.14236 5.45686,-4.575 5.48325,-5.40585 0.0264,-0.83085 -3.66451,-4.65428 -8.20201,-8.49651 -13.56035,-11.48253 -50.5409,-49.02428 -62.543705,-63.49285 l -11.19931,-13.5 4.24651,-0.67588 c 2.33557,-0.37173 9.8715,-0.70389 16.746505,-0.73813 l 12.5,-0.0623 3.16418,5.73814 c 8.3967,15.22715 28.38532,39.16164 52.34605,62.67944 12.94111,12.7019 16.54434,16.82999 17.73163,20.3145 0.81956,2.40526 3.01291,5.85212 4.87412,7.65971 1.86121,1.80758 3.38402,3.5575 3.38402,3.8887 0,0.33121 -2.07734,1.5211 -4.61631,2.6442 -7.39988,3.27332 -17.08622,10.68853 -28.74739,22.00708 -17.30857,16.8 -31.25833,34.16702 -52.09882,64.8614 l -11.66677,17.1831 -16.994375,0 c -13.328234,0 -16.83282,-0.26966 -16.245495,-1.25 z M 311.20173,299.11374 C 282.00283,254.5034 251.7432,221.26675 229.9361,209.853 c -3.4375,-1.79918 -6.25,-3.5642 -6.25,-3.92228 0,-0.35808 1.55675,-2.15992 3.45945,-4.00408 1.90269,-1.84417 4.14743,-5.37217 4.98831,-7.84001 1.23483,-3.62402 4.2588,-7.1038 15.72315,-18.09314 22.35972,-21.43327 42.07008,-44.7539 52.67284,-62.3207 l 4.65625,-7.71455 10.10331,-0.0354 c 5.55682,-0.0195 12.87844,0.2546 16.27028,0.60912 l 6.16697,0.64457 -1.69433,2.60543 c -8.20394,12.61547 -47.13617,53.44263 -69.62983,73.01888 -5.93097,5.16173 -10.65597,9.7111 -10.5,10.10971 0.15598,0.39861 3.6586,3.39806 7.7836,6.66544 19.54427,15.48088 50.20917,53.37276 87.85589,108.56139 l 3.24019,4.75 -17.29804,-0.0236 -17.29804,-0.0236 -8.98437,-13.72641 z M 197.51219,263.63769 c 0.23146,-34.24875 0.66674,-48.96758 1.5,-50.72195 1.29892,-2.7348 8.26696,-5.88551 13.21202,-5.97403 1.67096,-0.0299 5.04596,0.95812 7.5,2.19562 l 4.46189,2.25 0.61963,19 c 0.3408,10.45 0.6783,33.0625 0.75,50.25 l 0.13037,31.25 -14.25,3.6e-4 -14.25,3.6e-4 0.32609,-48.25036 z m 149.96874,-2.75545 c -1.6878,-1.03348 -6.51416,-14.75689 -12.70201,-36.1173 -3.84815,-13.28375 -13.76539,-53.51133 -14.65569,-59.44828 l -0.66422,-4.42933 12.59449,0 c 12.24189,0 12.6089,0.063 13.10887,2.25 0.2829,1.2375 2.35383,11.43048 4.60207,22.65106 5.23259,26.11507 9.10222,41.36234 10.62069,41.84808 1.2016,0.38437 9.2271,-23.33622 14.91461,-44.08241 1.48267,-5.4083 3.33329,-10.4708 4.11249,-11.25 1.52158,-1.52158 16.76381,-2.04702 18.89668,-0.65142 0.61754,0.40408 2.33433,4.78469 3.81508,9.73469 8.3221,27.82002 14.76392,46.5994 15.85953,46.23419 0.65434,-0.21811 2.19776,-4.63503 3.42983,-9.81538 1.89525,-7.96881 11.27275,-54.90066 11.27275,-56.4171 0,-0.27594 5.4,-0.50171 12,-0.50171 11.6669,0 12,0.0606 12,2.18195 0,5.95861 -13.99314,60.11113 -21.95162,84.95131 -3.36854,10.51395 -4.42506,12.73443 -6.29796,13.23634 -3.59174,0.96255 -16.70796,0.72349 -18.69653,-0.34076 -2.02161,-1.08193 -7.10729,-14.35781 -15.33413,-40.02884 -2.90828,-9.075 -5.72247,-16.34434 -6.25377,-16.15409 -0.53129,0.19025 -5.02473,12.64898 -9.98541,27.68608 -4.96068,15.0371 -9.3849,27.70645 -9.83159,28.1541 -1.23831,1.24095 -18.90461,1.50257 -20.85416,0.30882 z m 158.45517,0.34281 c -0.93702,-0.37809 -1.25,-5.15396 -1.25,-19.07389 l 0,-18.56951 -7.17491,-11.09716 C 484.79093,192.81057 467.6861,163.5913 467.6861,161.5359 c 0,-0.35672 6.03283,-0.64857 13.4063,-0.64857 l 13.40629,0 5.08053,10.07672 c 7.44054,14.7576 15.9851,28.92328 17.44614,28.92328 1.32263,0 12.81126,-19.1113 19.0863,-31.75 l 3.59958,-7.25 12.48743,0 c 8.76862,0 12.48743,0.34364 12.48743,1.1539 0,2.271 -12.19248,23.2901 -26.66669,45.97176 l -9.33331,14.62567 0,18.58915 c 0,17.35509 -0.12841,18.65787 -1.93426,19.62434 -1.93028,1.03305 -18.44644,1.32893 -20.81574,0.3729 z m 74.42922,-0.58772 c -1.57018,-1.15249 -1.6826,-5.0725 -1.44113,-50.25 l 0.26191,-49 11.75,-0.28174 11.75,-0.28173 0,17.47272 c 0,9.60999 0.38136,17.70841 0.84746,17.99647 0.77924,0.4816 6.042,-4.71403 27.52572,-27.17457 l 7.87318,-8.23115 13.37682,0 c 7.35725,0 13.37682,0.37429 13.37682,0.83176 0,0.77506 -37.04879,40.11631 -40.45447,42.95767 -0.85004,0.70918 -1.54553,1.68123 -1.54553,2.1601 0,0.47887 3.30502,3.82865 7.34448,7.44395 11.34674,10.15528 37.56719,42.37739 37.63539,46.24984 0.0226,1.28323 -23.27381,1.78165 -26.10321,0.55847 -0.89284,-0.38599 -4.47667,-4.52679 -7.96407,-9.20179 -7.74424,-10.38147 -29.33499,-32.47501 -30.83189,-31.54988 -0.71549,0.4422 -1.0807,7.37055 -1.0807,20.50191 0,17.16352 -0.21297,19.91572 -1.58179,20.44098 -2.98929,1.1471 -18.97537,0.65145 -20.73899,-0.64301 z M 206.96678,202.47005 c -1.58003,-1.32951 -4.19426,-4.81701 -5.8094,-7.75 l -2.93663,-5.33272 -0.37381,-41.75 -0.37382,-41.75 13.9447,0 13.9447,0 0.64421,41.25 0.6442,41.25 -2.5225,5.1816 c -2.94115,6.04157 -8.48932,11.3184 -11.9004,11.3184 -1.31366,0 -3.68123,-1.08778 -5.26125,-2.41728 z"
       style="fill:#d32f33" />
    <path
       inkscape:connector-curvature="0"
       id="path3081"
       d="M 311.20173,299.11374 C 282.00283,254.5034 251.7432,221.26675 229.9361,209.853 c -3.4375,-1.79918 -6.25,-3.5642 -6.25,-3.92228 0,-0.35808 1.55675,-2.15992 3.45945,-4.00408 1.90269,-1.84417 4.14743,-5.37217 4.98831,-7.84001 1.23483,-3.62402 4.2588,-7.1038 15.72315,-18.09314 22.35972,-21.43327 42.07008,-44.7539 52.67284,-62.3207 l 4.65625,-7.71455 10.10331,-0.0354 c 5.55682,-0.0195 12.87844,0.2546 16.27028,0.60912 l 6.16697,0.64457 -1.69433,2.60543 c -8.20394,12.61547 -47.13617,53.44263 -69.62983,73.01888 -5.93097,5.16173 -10.65597,9.7111 -10.5,10.10971 0.15598,0.39861 3.6586,3.39806 7.7836,6.66544 19.54427,15.48088 50.20917,53.37276 87.85589,108.56139 l 3.24019,4.75 -17.29804,-0.0236 -17.29804,-0.0236 -8.98437,-13.72641 z M 197.51219,263.63769 c 0.23146,-34.24875 0.66674,-48.96758 1.5,-50.72195 1.29892,-2.7348 8.26696,-5.88551 13.21202,-5.97403 1.67096,-0.0299 5.04596,0.95812 7.5,2.19562 l 4.46189,2.25 0.61963,19 c 0.3408,10.45 0.6783,33.0625 0.75,50.25 l 0.13037,31.25 -14.25,3.6e-4 -14.25,3.6e-4 0.32609,-48.25036 z m 149.96874,-2.75545 c -1.6878,-1.03348 -6.51416,-14.75689 -12.70201,-36.1173 -3.84815,-13.28375 -13.76539,-53.51133 -14.65569,-59.44828 l -0.66422,-4.42933 12.59449,0 c 12.24189,0 12.6089,0.063 13.10887,2.25 0.2829,1.2375 2.35383,11.43048 4.60207,22.65106 5.23259,26.11507 9.10222,41.36234 10.62069,41.84808 1.2016,0.38437 9.2271,-23.33622 14.91461,-44.08241 1.48267,-5.4083 3.33329,-10.4708 4.11249,-11.25 1.52158,-1.52158 16.76381,-2.04702 18.89668,-0.65142 0.61754,0.40408 2.33433,4.78469 3.81508,9.73469 8.3221,27.82002 14.76392,46.5994 15.85953,46.23419 0.65434,-0.21811 2.19776,-4.63503 3.42983,-9.81538 1.89525,-7.96881 11.27275,-54.90066 11.27275,-56.4171 0,-0.27594 5.4,-0.50171 12,-0.50171 11.6669,0 12,0.0606 12,2.18195 0,5.95861 -13.99314,60.11113 -21.95162,84.95131 -3.36854,10.51395 -4.42506,12.73443 -6.29796,13.23634 -3.59174,0.96255 -16.70796,0.72349 -18.69653,-0.34076 -2.02161,-1.08193 -7.10729,-14.35781 -15.33413,-40.02884 -2.90828,-9.075 -5.72247,-16.34434 -6.25377,-16.15409 -0.53129,0.19025 -5.02473,12.64898 -9.98541,27.68608 -4.96068,15.0371 -9.3849,27.70645 -9.83159,28.1541 -1.23831,1.24095 -18.90461,1.50257 -20.85416,0.30882 z m 158.45517,0.34281 c -0.93702,-0.37809 -1.25,-5.15396 -1.25,-19.07389 l 0,-18.56951 -7.17491,-11.09716 C 484.79093,192.81057 467.6861,163.5913 467.6861,161.5359 c 0,-0.35672 6.03283,-0.64857 13.4063,-0.64857 l 13.40629,0 5.08053,10.07672 c 7.44054,14.7576 15.9851,28.92328 17.44614,28.92328 1.32263,0 12.81126,-19.1113 19.0863,-31.75 l 3.59958,-7.25 12.48743,0 c 8.76862,0 12.48743,0.34364 12.48743,1.1539 0,2.271 -12.19248,23.2901 -26.66669,45.97176 l -9.33331,14.62567 0,18.58915 c 0,17.35509 -0.12841,18.65787 -1.93426,19.62434 -1.93028,1.03305 -18.44644,1.32893 -20.81574,0.3729 z m 74.42922,-0.58772 c -1.57018,-1.15249 -1.6826,-5.0725 -1.44113,-50.25 l 0.26191,-49 11.75,-0.28174 11.75,-0.28173 0,17.47272 c 0,9.60999 0.38136,17.70841 0.84746,17.99647 0.77924,0.4816 6.042,-4.71403 27.52572,-27.17457 l 7.87318,-8.23115 13.37682,0 c 7.35725,0 13.37682,0.37429 13.37682,0.83176 0,0.77506 -37.04879,40.11631 -40.45447,42.95767 -0.85004,0.70918 -1.54553,1.68123 -1.54553,2.1601 0,0.47887 3.30502,3.82865 7.34448,7.44395 11.34674,10.15528 37.56719,42.37739 37.63539,46.24984 0.0226,1.28323 -23.27381,1.78165 -26.10321,0.55847 -0.89284,-0.38599 -4.47667,-4.52679 -7.96407,-9.20179 -7.74424,-10.38147 -29.33499,-32.47501 -30.83189,-31.54988 -0.71549,0.4422 -1.0807,7.37055 -1.0807,20.50191 0,17.16352 -0.21297,19.91572 -1.58179,20.44098 -2.98929,1.1471 -18.97537,0.65145 -20.73899,-0.64301 z M 206.96678,202.47005 c -1.58003,-1.32951 -4.19426,-4.81701 -5.8094,-7.75 l -2.93663,-5.33272 -0.37381,-41.75 -0.37382,-41.75 13.9447,0 13.9447,0 0.64421,41.25 0.6442,41.25 -2.5225,5.1816 c -2.94115,6.04157 -8.48932,11.3184 -11.9004,11.3184 -1.31366,0 -3.68123,-1.08778 -5.26125,-2.41728 z"
       style="fill:#349107" />
  </g>
</svg>
