<?xml version="1.0" encoding="UTF-8" standalone="no"?>
<!-- Generator: Adobe Illustrator 16.0.0, SVG Export Plug-In . SVG Version: 6.00 Build 0)  -->

<svg
   xmlns:dc="http://purl.org/dc/elements/1.1/"
   xmlns:cc="http://creativecommons.org/ns#"
   xmlns:rdf="http://www.w3.org/1999/02/22-rdf-syntax-ns#"
   xmlns:svg="http://www.w3.org/2000/svg"
   xmlns="http://www.w3.org/2000/svg"
   xmlns:sodipodi="http://sodipodi.sourceforge.net/DTD/sodipodi-0.dtd"
   xmlns:inkscape="http://www.inkscape.org/namespaces/inkscape"
   version="1.1"
   id="svg2"
   inkscape:version="0.91 r13725"
   sodipodi:docname="postclass-logo.svg"
   x="0px"
   y="0px"
   width="595.275px"
   height="841.89px"
   viewBox="0 0 595.275 841.89"
   enable-background="new 0 0 595.275 841.89"
   xml:space="preserve"><metadata
     id="metadata14"><rdf:RDF><cc:Work
         rdf:about=""><dc:format>image/svg+xml</dc:format><dc:type
           rdf:resource="http://purl.org/dc/dcmitype/StillImage" /></cc:Work></rdf:RDF></metadata><defs
     id="defs12" /><sodipodi:namedview
     inkscape:window-width="1280"
     inkscape:window-height="657"
     inkscape:pageopacity="0.0"
     inkscape:document-units="px"
     inkscape:pageshadow="2"
     inkscape:window-x="-8"
     inkscape:current-layer="svg2"
     inkscape:window-y="-8"
     inkscape:window-maximized="1"
     pagecolor="#ffffff"
     showgrid="false"
     inkscape:cy="557.76678"
     inkscape:zoom="2"
     borderopacity="1.0"
     bordercolor="#666666"
     inkscape:cx="284.48753"
     id="base" /><g
     id="flowRoot4194" /><rect
     style="fill:#357ebf"
     height="80.944"
     width="332.9852"
     inkscape:export-ydpi="264.03"
     inkscape:export-xdpi="264.03"
     inkscape:export-filename="C:\dev\perso\postclass\logos\twitter\twitter-profile.png"
     y="222.485"
     x="160.96301"
     id="rect4156" /><g
     id="g4147"
     transform="translate(-42.620746,0.41775757)"><g
       style="font-style:normal;font-weight:normal;font-size:40px;line-height:125%;font-family:Sans;letter-spacing:0px;word-spacing:0px;fill:#000000;fill-opacity:1;stroke:none;stroke-width:1px;stroke-linecap:butt;stroke-linejoin:miter;stroke-opacity:1"
       id="text4158"><path
         d="m 219.43963,248.61924 c 0,2.1025 1.2325,3.915 3.045,4.785 -1.595,2.6825 -2.465,5.8 -2.465,9.135 l 0,27.84 c 0,2.5375 2.1025,4.64 4.64,4.64 2.5375,0 4.64,-2.1025 4.64,-4.64 l 0,-11.745 c 2.6825,1.595 5.8725,2.465 9.28,2.465 10.2225,0 18.56,-8.3375 18.56,-18.56 0,-10.2225 -8.3375,-18.56 -18.56,-18.56 -3.335,0 -6.4525,0.9425 -9.2075,2.465 -0.7975,-1.8125 -2.61,-3.045 -4.7125,-3.045 -2.9,0 -5.22,2.32 -5.22,5.22 z m 9.86,13.92 c 0,-5.1475 4.1325,-9.28 9.28,-9.28 5.1475,0 9.28,4.1325 9.28,9.28 0,5.1475 -4.1325,9.28 -9.28,9.28 -5.1475,0 -9.28,-4.1325 -9.28,-9.28 z"
         style="font-style:normal;font-variant:normal;font-weight:bold;font-stretch:normal;font-size:72.5px;font-family:'Geometry Soft Pro';-inkscape-font-specification:'Geometry Soft Pro Bold';fill:#ffffff;fill-opacity:1"
         id="path3340" /><path
         d="m 259.48568,262.53924 c 0,10.2225 8.3375,18.56 18.56,18.56 10.2225,0 18.56,-8.3375 18.56,-18.56 0,-10.2225 -8.3375,-18.56 -18.56,-18.56 -10.2225,0 -18.56,8.3375 -18.56,18.56 z m 9.28,0 c 0,-5.1475 4.1325,-9.28 9.28,-9.28 5.1475,0 9.28,4.1325 9.28,9.28 0,5.1475 -4.1325,9.28 -9.28,9.28 -5.1475,0 -9.28,-4.1325 -9.28,-9.28 z"
         style="font-style:normal;font-variant:normal;font-weight:bold;font-stretch:normal;font-size:72.5px;font-family:'Geometry Soft Pro';-inkscape-font-specification:'Geometry Soft Pro Bold';fill:#ffffff;fill-opacity:1"
         id="path3342" /><path
         d="m 304.21252,271.81924 c -2.5375,0 -4.64,2.1025 -4.64,4.64 0,2.5375 2.1025,4.64 4.64,4.64 l 16.24,0 c 6.38,0 11.6,-5.22 11.6,-11.6 0,-6.38 -5.22,-11.6 -11.6,-11.6 l -9.28,0 c -1.305,0 -2.32,-1.015 -2.32,-2.32 0,-1.305 1.015,-2.32 2.32,-2.32 l 13.92,0 c 2.5375,0 4.64,-2.1025 4.64,-4.64 0,-2.5375 -2.1025,-4.64 -4.64,-4.64 l -13.92,0 c -6.38,0 -11.6,5.22 -11.6,11.6 0,6.38 5.22,11.6 11.6,11.6 l 9.28,0 c 1.305,0 2.32,1.015 2.32,2.32 0,1.305 -1.015,2.32 -2.32,2.32 l -16.24,0 z"
         style="font-style:normal;font-variant:normal;font-weight:bold;font-stretch:normal;font-size:72.5px;font-family:'Geometry Soft Pro';-inkscape-font-specification:'Geometry Soft Pro Bold';fill:#ffffff;fill-opacity:1"
         id="path3344" /><path
         d="m 337.3201,243.97924 c -2.5375,0 -4.64,2.1025 -4.64,4.64 0,2.5375 2.1025,4.64 4.64,4.64 l 3.48,0 0,13.92 c 0,7.685 6.235,13.92 13.92,13.92 l 2.32,0 c 2.5375,0 4.64,-2.1025 4.64,-4.64 0,-2.5375 -2.1025,-4.64 -4.64,-4.64 l -2.32,0 c -2.5375,0 -4.64,-2.1025 -4.64,-4.64 l 0,-13.92 6.96,0 c 2.5375,0 4.64,-2.1025 4.64,-4.64 0,-2.5375 -2.1025,-4.64 -4.64,-4.64 l -6.96,0 0,-4.64 c 0,-2.5375 -2.1025,-4.64 -4.64,-4.64 -2.5375,0 -4.64,2.1025 -4.64,4.64 l 0,4.64 -3.48,0 z"
         style="font-style:normal;font-variant:normal;font-weight:bold;font-stretch:normal;font-size:72.5px;font-family:'Geometry Soft Pro';-inkscape-font-specification:'Geometry Soft Pro Bold';fill:#ffffff;fill-opacity:1"
         id="path3346" /><path
         d="m 392.83811,275.66174 c 0.87,-0.87 1.3775,-2.03 1.3775,-3.2625 0,-2.465 -2.175,-4.64 -4.64,-4.64 -1.2325,0 -2.3925,0.5075 -3.2625,1.3775 -1.885,1.8125 -4.205,2.6825 -6.5975,2.6825 -5.1475,0 -9.28,-4.1325 -9.28,-9.28 0,-5.1475 4.1325,-9.28 9.28,-9.28 2.3925,0 4.785,0.7975 6.5975,2.6825 0.87,0.9425 2.03,1.3775 3.2625,1.3775 2.465,0 4.64,-2.1025 4.64,-4.64 0,-1.16 -0.5075,-2.3925 -1.3775,-3.2625 -3.625,-3.625 -8.41,-5.4375 -13.1225,-5.4375 -10.2225,0 -18.56,8.3375 -18.56,18.56 0,10.2225 8.3375,18.56 18.56,18.56 4.7125,0 9.4975,-1.8125 13.1225,-5.4375 z"
         style="font-style:normal;font-variant:normal;font-weight:bold;font-stretch:normal;font-size:72.5px;font-family:'Geometry Soft Pro';-inkscape-font-specification:'Geometry Soft Pro Bold';fill:#ffffff;fill-opacity:1"
         id="path3348" /><path
         d="m 407.576,234.69924 c 0,-2.5375 -2.1025,-4.64 -4.64,-4.64 -2.5375,0 -4.64,2.1025 -4.64,4.64 l 0,41.76 c 0,2.5375 2.1025,4.64 4.64,4.64 2.5375,0 4.64,-2.1025 4.64,-4.64 l 0,-41.76 z"
         style="font-style:normal;font-variant:normal;font-weight:bold;font-stretch:normal;font-size:72.5px;font-family:'Geometry Soft Pro';-inkscape-font-specification:'Geometry Soft Pro Bold';fill:#ffffff;fill-opacity:1"
         id="path3350" /><path
         d="m 411.70736,262.53924 c 0,10.2225 8.3375,18.56 18.56,18.56 3.335,0 6.4525,-0.87 9.135,-2.465 0.87,1.8125 2.6825,3.045 4.785,3.045 2.9,0 5.22,-2.32 5.22,-5.22 0,-2.1025 -1.2325,-3.915 -3.045,-4.7125 1.5225,-2.755 2.465,-5.8725 2.465,-9.2075 0,-10.2225 -8.3375,-18.56 -18.56,-18.56 -10.2225,0 -18.56,8.3375 -18.56,18.56 z m 9.28,0 c 0,-5.1475 4.1325,-9.28 9.28,-9.28 5.1475,0 9.28,4.1325 9.28,9.28 0,5.1475 -4.1325,9.28 -9.28,9.28 -5.1475,0 -9.28,-4.1325 -9.28,-9.28 z"
         style="font-style:normal;font-variant:normal;font-weight:bold;font-stretch:normal;font-size:72.5px;font-family:'Geometry Soft Pro';-inkscape-font-specification:'Geometry Soft Pro Bold';fill:#ffffff;fill-opacity:1"
         id="path3352" /><path
         d="m 457.56701,271.81924 c -2.5375,0 -4.64,2.1025 -4.64,4.64 0,2.5375 2.1025,4.64 4.64,4.64 l 16.24,0 c 6.38,0 11.6,-5.22 11.6,-11.6 0,-6.38 -5.22,-11.6 -11.6,-11.6 l -9.28,0 c -1.305,0 -2.32,-1.015 -2.32,-2.32 0,-1.305 1.015,-2.32 2.32,-2.32 l 13.92,0 c 2.5375,0 4.64,-2.1025 4.64,-4.64 0,-2.5375 -2.1025,-4.64 -4.64,-4.64 l -13.92,0 c -6.38,0 -11.6,5.22 -11.6,11.6 0,6.38 5.22,11.6 11.6,11.6 l 9.28,0 c 1.305,0 2.32,1.015 2.32,2.32 0,1.305 -1.015,2.32 -2.32,2.32 l -16.24,0 z"
         style="font-style:normal;font-variant:normal;font-weight:bold;font-stretch:normal;font-size:72.5px;font-family:'Geometry Soft Pro';-inkscape-font-specification:'Geometry Soft Pro Bold';fill:#ffffff;fill-opacity:1"
         id="path3354" /><path
         d="m 492.9674,271.81924 c -2.5375,0 -4.64,2.1025 -4.64,4.64 0,2.5375 2.1025,4.64 4.64,4.64 l 16.24,0 c 6.38,0 11.6,-5.22 11.6,-11.6 0,-6.38 -5.22,-11.6 -11.6,-11.6 l -9.28,0 c -1.305,0 -2.32,-1.015 -2.32,-2.32 0,-1.305 1.015,-2.32 2.32,-2.32 l 13.92,0 c 2.5375,0 4.64,-2.1025 4.64,-4.64 0,-2.5375 -2.1025,-4.64 -4.64,-4.64 l -13.92,0 c -6.38,0 -11.6,5.22 -11.6,11.6 0,6.38 5.22,11.6 11.6,11.6 l 9.28,0 c 1.305,0 2.32,1.015 2.32,2.32 0,1.305 -1.015,2.32 -2.32,2.32 l -16.24,0 z"
         style="font-style:normal;font-variant:normal;font-weight:bold;font-stretch:normal;font-size:72.5px;font-family:'Geometry Soft Pro';-inkscape-font-specification:'Geometry Soft Pro Bold';fill:#ffffff;fill-opacity:1"
         id="path3356" /></g><g
       transform="matrix(1.0316808,0,0,1.0157256,106.78997,-38.732374)"
       id="g4164"><path
         style="fill:#bf3539"
         d="m 118.72068,280.5154 c -0.4588,-1.15391 -2.34968,-2.8394 -4.43768,-2.8394 -2.88,0 -5.184,2.304 -5.184,5.184 0,2.088 1.23471,3.89888 3.03471,4.76288 2.276,-3.425 3.64356,-4.69481 6.69456,-6.87081"
         inkscape:connector-curvature="0"
         sodipodi:nodetypes="csscc"
         id="path4166" /></g></g></svg>