<svg id="Calque_1" data-name="Calque 1" xmlns="http://www.w3.org/2000/svg" viewBox="0 0 328.17 132.16"><defs><style>.cls-1{fill:#f5f5f5;}</style></defs><title>Plan de travail 1logo_edted</title><path class="cls-1" d="M0,85.87V0H56.56V15.68H16.16V34H51.38V50H16.16V70H55.48V85.87Z"/><path class="cls-1" d="M65.15,78.24a28.82,28.82,0,0,1,0-40.76,28.52,28.52,0,0,1,20.38-8.32,19.75,19.75,0,0,1,13.63,5.43l.6.48V0h14.59V85.47H99.76V81.13l-.6.6c-4.34,4.22-9.29,4.83-13.63,4.83A28.93,28.93,0,0,1,65.15,78.24Zm6.15-20a14.24,14.24,0,1,0,28.46,0c0-7.84-6.51-14.59-14.23-14.59S71.3,50.41,71.3,58.25Z"/><path class="cls-1" d="M136.38,85.87V15.92H117.32V0H171.6V15.92H152.54V85.87Z"/><path class="cls-1" d="M185.35,87.2a25.2,25.2,0,0,1-10.51-2.41,26.52,26.52,0,0,1-8.68-6.27,29.09,29.09,0,0,1-7.35-16.88,29.56,29.56,0,0,1-.24-3.38,32.6,32.6,0,0,1,1-7.48,26.73,26.73,0,0,1,6.63-12.66,27.59,27.59,0,0,1,8.68-6.39,24.42,24.42,0,0,1,10.63-2.29,24,24,0,0,1,10.61,2.29,25.46,25.46,0,0,1,8.68,6.39,28.58,28.58,0,0,1,6.75,12.66,29,29,0,0,1,.84,7.48v4.82H171.82l.12-1.2c1.57,7.48,7.24,12.91,13.52,12.91h.12c3.5-.24,7.36-2.41,9.65-4.34l1.33-1.09,10,8.69-1.81,1.57a25.23,25.23,0,0,1-4.82,3.62h-.12a29.13,29.13,0,0,1-14.35,4Zm-11.83-36.9L173,51.77h25l-.48-1.48c-2.78-5.19-7.36-8.32-12.06-8.32S176,45.23,173.51,50.29Z"/><path class="cls-1" d="M224.66,78.75l-.12-.12A28.76,28.76,0,0,1,245,29.43a27.73,27.73,0,0,1,20.38,8.32,35.85,35.85,0,0,1,3,3.38l1.45,2.17-11.82,8.8-1.69-2.29c-2.89-3.86-7.12-6.27-11.33-6.27-7.6,0-14.11,6.75-14.11,14.71S237.44,73,245,73c4.22,0,8.44-2.41,11.33-6.51l1.57-2.17,12.3,8.8-1.81,2.29a8.06,8.06,0,0,1-1,1.09c-.6.72-1.33,1.57-2.05,2.29A28.61,28.61,0,0,1,245,87.07,29,29,0,0,1,224.66,78.75Z"/><path class="cls-1" d="M313,85.87V56.32a11.53,11.53,0,0,0-11.7-11.58,11.76,11.76,0,0,0-11.7,11.58V85.87H274.5V-.1h15.07V34.61a16,16,0,0,1,11.7-5.06,26.56,26.56,0,0,1,26.89,26.77V85.87Z"/><path class="cls-1" d="M.22,114.34a10.7,10.7,0,0,1,.15-1.81A.54.54,0,0,1,1,112a.57.57,0,0,1,.6.66c0,.55-.1,1.16-.1,1.71v.76a.56.56,0,0,1-.55.71H.87a.66.66,0,0,1-.65-.66Zm.3,3.48a.76.76,0,0,1,.5-.76.74.74,0,0,1,.81.51,10.94,10.94,0,0,0,.65,2.52c.1.3,0,.61-.45.75a.37.37,0,0,1-.2.05.7.7,0,0,1-.6-.46A20.45,20.45,0,0,1,.52,117.82Zm.25-7.91a15.84,15.84,0,0,1,.8-2.62.67.67,0,0,1,.86-.35.78.78,0,0,1,.4.86,14.57,14.57,0,0,0-.8,2.36.69.69,0,0,1-.65.5H1.23A.61.61,0,0,1,.78,109.91Zm1.56,13a.55.55,0,0,1,.25-.86.6.6,0,0,1,.85.25,19.84,19.84,0,0,0,1.31,2.17.67.67,0,0,1-.2.91.53.53,0,0,1-.3.1.72.72,0,0,1-.6-.3A11.2,11.2,0,0,1,2.34,122.9Zm.5-18c.45-.75,1-1.51,1.46-2.21a.65.65,0,0,1,.91-.1.64.64,0,0,1,.1.91,24.64,24.64,0,0,0-1.41,2.07.68.68,0,0,1-.55.3.53.53,0,0,1-.3-.05A.62.62,0,0,1,2.84,104.92Zm2.52,22.3a.64.64,0,0,1,0-.91.69.69,0,0,1,1,0,14.14,14.14,0,0,0,1.86,1.61.61.61,0,0,1,.15.91.65.65,0,0,1-.55.25.8.8,0,0,1-.35-.05C6.72,128.43,6.06,127.88,5.36,127.23Zm.86-26.43a8.64,8.64,0,0,1,2.11-1.66.52.52,0,0,1,.81.2.54.54,0,0,1-.15.81c-.65.5-1.31,1-2,1.61a1,1,0,0,1-.45.1.71.71,0,0,1-.45-.2C5.81,101.4,6,101,6.21,100.8ZM9.74,130.5a.87.87,0,0,1-.35-1,.73.73,0,0,1,1-.25,9.27,9.27,0,0,0,2.21.9.78.78,0,0,1,.45.86.77.77,0,0,1-.65.45H12.2C11.35,131.21,10.54,130.85,9.74,130.5Zm.91-32.62A14.86,14.86,0,0,1,13.21,97a.68.68,0,0,1,.81.5.65.65,0,0,1-.5.76,20.69,20.69,0,0,0-2.37.75c0,.1-.1.1-.25.1a.64.64,0,0,1-.25-1.21Zm3.62,33.53a.66.66,0,0,1,.7-.61,10,10,0,0,0,2.17.15h.4a.65.65,0,0,1,.61.6.6.6,0,0,1-.61.66h-.4a10.85,10.85,0,0,1-2.27-.15A.62.62,0,0,1,14.27,131.41Zm2.87-33.63a4.81,4.81,0,0,0-1.21.1.75.75,0,0,1-.71-.66.71.71,0,0,1,.65-.7,8.74,8.74,0,0,1,1.26-.05,12.36,12.36,0,0,1,1.41.05.69.69,0,0,1-.05,1.36h-.1A5,5,0,0,0,17.14,97.78ZM20,130.7a17.6,17.6,0,0,0,2.32-.7.63.63,0,0,1,.85.3q.15.68-.3.91a26.19,26.19,0,0,1-2.62.75h-.15a.6.6,0,0,1-.6-.5A.56.56,0,0,1,20,130.7Zm1-32.47a.56.56,0,0,1-.5-.76c.05-.3.5-.5.81-.45a11.68,11.68,0,0,1,2.47.91.58.58,0,0,1,.35.81.65.65,0,0,1-.6.4c-.05,0-.2,0-.25,0A15.07,15.07,0,0,0,20.91,98.23Zm3.62,30.66a7.15,7.15,0,0,0,2-1.41.77.77,0,0,1,1,.15.7.7,0,0,1-.1.91A16.62,16.62,0,0,1,25.19,130a.56.56,0,0,1-.31.1.71.71,0,0,1-.6-.3A.67.67,0,0,1,24.54,128.89Zm.86-28.59a.66.66,0,0,1,.71-1.11,22.28,22.28,0,0,1,2.06,1.71.57.57,0,0,1,.05.91.58.58,0,0,1-.5.2.46.46,0,0,1-.4-.15C26.7,101.3,26,100.8,25.39,100.29Zm3,25.47a19.9,19.9,0,0,0,1.51-2,.64.64,0,0,1,.85-.2.65.65,0,0,1,.15.91,21,21,0,0,1-1.56,2.16,1.09,1.09,0,0,1-.46.2.93.93,0,0,1-.45-.15A.66.66,0,0,1,28.42,125.77Zm.6-22.1a.64.64,0,0,1,.1-.9c.3-.2.7-.2.85.15a10.07,10.07,0,0,1,1.56,2.21.7.7,0,0,1-.25.86c-.15,0-.2.1-.35.1a.77.77,0,0,1-.55-.35A18.27,18.27,0,0,0,29,103.67Zm2.06,17.93a20.46,20.46,0,0,0,.91-2.32.64.64,0,0,1,.81-.45.84.84,0,0,1,.45.85,25,25,0,0,1-1,2.47.82.82,0,0,1-.66.41c-.05,0-.2-.05-.25-.05A.74.74,0,0,1,31.08,121.59ZM31.44,108c-.1-.45,0-.76.4-.9a.72.72,0,0,1,.91.35,25,25,0,0,1,.75,2.57.73.73,0,0,1-.5.81h-.15a.74.74,0,0,1-.65-.56A11.83,11.83,0,0,0,31.44,108Zm1.11,8.81c.05-.81.1-1.71.1-2.52a14.87,14.87,0,0,0-.05-1.5.62.62,0,0,1,.55-.66.58.58,0,0,1,.7.56,8.7,8.7,0,0,1,.1,1.61,22.08,22.08,0,0,1-.2,2.67.61.61,0,0,1-.6.56H33A.63.63,0,0,1,32.54,116.85Z"/><path class="cls-1" d="M40.51,97.63a.61.61,0,0,1,.66-.65h2.67a.61.61,0,0,1,.66.65.63.63,0,0,1-.66.6H41.77v1.91a.66.66,0,0,1-.6.66.63.63,0,0,1-.66-.66Zm0,5.09a.63.63,0,0,1,.66-.65.66.66,0,0,1,.6.65v2.57a.7.7,0,0,1-.6.65.66.66,0,0,1-.66-.65Zm0,5.14a.61.61,0,0,1,.66-.66.63.63,0,0,1,.6.66v2.51a.66.66,0,0,1-.6.66.64.64,0,0,1-.66-.66Zm0,5.08a.61.61,0,0,1,.66-.65.62.62,0,0,1,.6.65v2.57a.64.64,0,0,1-.6.6.62.62,0,0,1-.66-.6Zm0,5.09a.6.6,0,0,1,.66-.6.61.61,0,0,1,.6.6v2.57a.66.66,0,0,1-.6.65.63.63,0,0,1-.66-.65Zm0,5.13a.61.61,0,0,1,.66-.65.62.62,0,0,1,.6.65v2.57a.65.65,0,0,1-.6.6.63.63,0,0,1-.66-.6Zm0,5.09a.6.6,0,0,1,.66-.61.61.61,0,0,1,.6.61v2.56a.19.19,0,0,1-.05.15h2.06a.61.61,0,0,1,.6.6.6.6,0,0,1-.6.66H41.26a.63.63,0,0,1-.6-.66.54.54,0,0,1,0-.25.6.6,0,0,1-.2-.51Zm2.92-14.4a.62.62,0,0,1-.6-.65.7.7,0,0,1,.6-.65H46a.66.66,0,0,1,.65.65.61.61,0,0,1-.65.65Zm2.87,18.38a.63.63,0,0,1-.6-.66.65.65,0,0,1,.6-.6h2.57a.63.63,0,0,1,.65.6.61.61,0,0,1-.65.66Zm.1-34a.66.66,0,0,1-.66-.6A.63.63,0,0,1,46.4,97h2.51a.61.61,0,0,1,.66.65.63.63,0,0,1-.66.6Zm2.16,15.61a.63.63,0,0,1-.65-.65.7.7,0,0,1,.65-.65h.71a9.94,9.94,0,0,0,1.71-.15.6.6,0,0,1,.76.5.69.69,0,0,1-.45.76,8.69,8.69,0,0,1-2,.2ZM51.43,131h.1a10.88,10.88,0,0,0,2.27-.25.59.59,0,0,1,.81.4.66.66,0,0,1-.45.8,14.07,14.07,0,0,1-2.62.31h-.1a.67.67,0,0,1-.65-.66A.7.7,0,0,1,51.43,131Zm-.15-32.47a.61.61,0,0,1-.45-.75.77.77,0,0,1,.8-.46,8.62,8.62,0,0,1,2.46,1.21.66.66,0,0,1,.2.91.63.63,0,0,1-.6.25c-.1,0-.25,0-.3-.1A9.21,9.21,0,0,0,51.28,98.48Zm3.83,15.81a6.67,6.67,0,0,0-2.27-.4.61.61,0,0,1-.65-.66.62.62,0,0,1,.65-.6h.5a.61.61,0,0,1-.45-.25.7.7,0,0,1,.2-.91,6.64,6.64,0,0,0,1.76-1.61.64.64,0,0,1,1,.86,8.58,8.58,0,0,1-2,1.81.42.42,0,0,1-.35.1h-.1a6.08,6.08,0,0,1,2.17.45.58.58,0,0,1,.4.75.63.63,0,0,1-.6.45Zm-.05-13.09a.68.68,0,0,1,.15-.9.62.62,0,0,1,.86.1,9.68,9.68,0,0,1,1.26,2.52.62.62,0,0,1-.4.75c-.05,0-.15.05-.2.05a.79.79,0,0,1-.65-.4A5.15,5.15,0,0,0,55.06,101.2ZM56,129.74a8.11,8.11,0,0,0,1.86-1.56.58.58,0,0,1,.86,0,.76.76,0,0,1,.1.91,11.21,11.21,0,0,1-2.12,1.71,1.1,1.1,0,0,1-.4.05.57.57,0,0,1-.5-.25A.64.64,0,0,1,56,129.74ZM56,107.89a7.51,7.51,0,0,0,.4-2.31.67.67,0,0,1,.71-.6.57.57,0,0,1,.56.6,8.71,8.71,0,0,1-.51,2.77.51.51,0,0,1-.55.35c-.1,0-.15,0-.2-.05A.54.54,0,0,1,56,107.89Zm1.16,7.46a.7.7,0,0,1-.15-.91.65.65,0,0,1,.91-.11,7.59,7.59,0,0,1,1.86,2.12.55.55,0,0,1-.25.8.36.36,0,0,1-.3.15.76.76,0,0,1-.55-.35A8.19,8.19,0,0,0,57.17,115.35Zm2,10.92a7.45,7.45,0,0,0,.81-2.22.56.56,0,0,1,.75-.5.65.65,0,0,1,.5.76,10.86,10.86,0,0,1-.91,2.51.63.63,0,0,1-.55.35.86.86,0,0,1-.35,0A.77.77,0,0,1,59.13,126.27Zm.5-7a.66.66,0,0,1,.4-.81.7.7,0,0,1,.86.45,11.26,11.26,0,0,1,.4,2.62.67.67,0,0,1-.55.7H60.7a.63.63,0,0,1-.66-.65A11.53,11.53,0,0,0,59.64,119.27Z"/><path class="cls-1" d="M65.91,127.08a.56.56,0,0,1-.1-.8.56.56,0,0,1,.81,0c.55.4,1.11.85,1.76,1.26a.58.58,0,0,1,.15.81.63.63,0,0,1-.5.25.7.7,0,0,1-.3-.11C67.07,128,66.47,127.53,65.91,127.08Zm1-21.19a.56.56,0,1,1,1.11-.1,5.3,5.3,0,0,0,.61,2,.55.55,0,0,1-.25.75.56.56,0,0,1-.25,0,.7.7,0,0,1-.55-.3A6.18,6.18,0,0,1,66.87,105.88Zm.25-2.47a7.5,7.5,0,0,1,1.06-2.22.58.58,0,0,1,1,.66,5.77,5.77,0,0,0-.9,1.86.65.65,0,0,1-.55.46.3.3,0,0,1-.2-.05A.54.54,0,0,1,67.12,103.41Zm2,6.85a.56.56,0,0,1,0-.8.57.57,0,0,1,.81-.05,9.3,9.3,0,0,0,1.76,1.26.59.59,0,0,1,.25.81.61.61,0,0,1-.5.3.74.74,0,0,1-.3-.1A8.22,8.22,0,0,1,69.08,110.26Zm.65,19.38a.58.58,0,0,1-.2-.76.54.54,0,0,1,.75-.25c.66.35,1.31.7,2,1a.54.54,0,0,1,.3.75.6.6,0,0,1-.5.35c-.1,0-.15-.05-.25-.05C71.15,130.35,70.39,130,69.74,129.65Zm.1-30.26a14.16,14.16,0,0,1,2-1.31.59.59,0,0,1,.81.25.54.54,0,0,1-.25.76,11.43,11.43,0,0,0-1.81,1.21.56.56,0,0,1-.35.15.53.53,0,0,1-.45-.25A.61.61,0,0,1,69.84,99.39Zm3.37,13.29a.56.56,0,0,1-.35-.7.62.62,0,0,1,.75-.36,19,19,0,0,0,2.12.7.58.58,0,0,1,.4.71.59.59,0,0,1-.55.45.2.2,0,0,1-.15,0A17.5,17.5,0,0,1,73.21,112.68Zm.85-15.51a12.38,12.38,0,0,1,2.37-.56.58.58,0,0,1,.66.51.61.61,0,0,1-.51.66,14.79,14.79,0,0,0-2.16.45.19.19,0,0,1-.15,0,.59.59,0,0,1-.55-.4A.54.54,0,0,1,74.07,97.17Zm0,34.29a.55.55,0,0,1-.4-.71.62.62,0,0,1,.7-.4,10.17,10.17,0,0,0,2.16.5.58.58,0,0,1-.1,1.16h0A16.58,16.58,0,0,1,74.12,131.46Zm4.63-17.27h-.1a6.18,6.18,0,0,1-1-.2.57.57,0,0,1-.45-.66.66.66,0,0,1,.71-.45,5.5,5.5,0,0,1,.91.2H79c.45.1.86.15,1.26.25a.57.57,0,0,1,.45.66.64.64,0,0,1-.6.51.17.17,0,0,0-.1,0A10.73,10.73,0,0,1,78.75,114.19Zm0-16.56a.7.7,0,0,1-.6-.6.61.61,0,0,1,.6-.56,12.39,12.39,0,0,1,2.37.2.57.57,0,0,1,.5.66.6.6,0,0,1-.6.51.17.17,0,0,0-.1,0A15.11,15.11,0,0,0,78.8,97.63Zm-.6,34a.61.61,0,0,1,.6-.56h.05A14.62,14.62,0,0,0,81,130.9a.59.59,0,0,1,.15,1.16,17.17,17.17,0,0,1-2.32.15H78.8A.61.61,0,0,1,78.2,131.61Zm4-16.62a.57.57,0,0,1-.4-.7.55.55,0,0,1,.71-.4c.75.25,1.51.45,2.21.75a.6.6,0,0,1,.35.76.62.62,0,0,1-.55.35.33.33,0,0,1-.2,0A20.93,20.93,0,0,0,82.17,115Zm1-16.66a.56.56,0,0,1,.35-1.06,16.63,16.63,0,0,1,2.21.91A.63.63,0,0,1,86,99a.56.56,0,0,1-.5.3.63.63,0,0,1-.3-.05A15.12,15.12,0,0,0,83.13,98.33Zm0,32.12a15.07,15.07,0,0,0,2.06-.76.56.56,0,1,1,.5,1,11.05,11.05,0,0,1-2.27.86h-.15a.58.58,0,0,1-.55-.41A.57.57,0,0,1,83.18,130.45ZM86.3,116.6a.57.57,0,0,1-.2-.75.55.55,0,0,1,.76-.25,11.73,11.73,0,0,1,2,1.36.57.57,0,0,1,.1.81.92.92,0,0,1-.45.2.46.46,0,0,1-.35-.15A18.94,18.94,0,0,0,86.3,116.6Zm.86-16.31a.49.49,0,0,1-.2-.75.52.52,0,0,1,.76-.2c.71.41,1.36.86,2,1.26a.53.53,0,0,1,.2.76.62.62,0,0,1-.5.3.66.66,0,0,1-.3-.1C88.42,101.15,87.81,100.7,87.16,100.29Zm0,28.29a9.12,9.12,0,0,0,1.61-1.46.57.57,0,1,1,.85.75,10.93,10.93,0,0,1-1.81,1.61.45.45,0,0,1-.35.15.59.59,0,0,1-.45-.25A.58.58,0,0,1,87.16,128.59Zm2.42-9.21a.63.63,0,0,1,.15-.81.6.6,0,0,1,.81.15,6.5,6.5,0,0,1,1,2.27.53.53,0,0,1-.4.71H91a.55.55,0,0,1-.55-.41A5.48,5.48,0,0,0,89.58,119.37Zm.35,6a4.9,4.9,0,0,0,.6-2,.58.58,0,1,1,1.16.15,8,8,0,0,1-.7,2.37.56.56,0,0,1-.5.3.39.39,0,0,1-.25,0A.58.58,0,0,1,89.93,125.37Z"/><path class="cls-1" d="M97.79,97.63a.63.63,0,0,1,.65-.65h2.67a.61.61,0,0,1,.65.65.63.63,0,0,1-.65.6H99v1.91a.62.62,0,0,1-.6.66.66.66,0,0,1-.65-.66Zm0,5.09a.66.66,0,0,1,.65-.65.62.62,0,0,1,.6.65v2.57a.66.66,0,0,1-.6.65.7.7,0,0,1-.65-.65Zm0,5.14a.64.64,0,0,1,.65-.66.6.6,0,0,1,.6.66v2.51a.63.63,0,0,1-.6.66.67.67,0,0,1-.65-.66Zm0,5.08a.63.63,0,0,1,.65-.65.6.6,0,0,1,.6.65v1h2.06a.67.67,0,0,1,.65.66.61.61,0,0,1-.65.65H99v.25a.61.61,0,0,1-.6.6.65.65,0,0,1-.65-.6Zm0,5.09a.62.62,0,0,1,.65-.6.58.58,0,0,1,.6.6v2.57a.62.62,0,0,1-.6.65.67.67,0,0,1-.65-.65Zm0,5.13a.63.63,0,0,1,.65-.65.6.6,0,0,1,.6.65v2.57a.61.61,0,0,1-.6.6.66.66,0,0,1-.65-.6Zm.75,9.06a.63.63,0,0,1-.61-.66c0-.1,0-.2.05-.25a.66.66,0,0,1-.2-.51v-2.56a.62.62,0,0,1,.65-.61.58.58,0,0,1,.6.61v2.56c0,.05-.05.1-.05.15h2.12a.63.63,0,0,1,.65.6.61.61,0,0,1-.65.66Zm5.13-34a.66.66,0,0,1-.66-.6.63.63,0,0,1,.66-.65h2.52a.61.61,0,0,1,.65.65.63.63,0,0,1-.65.6Zm0,17a.63.63,0,0,1-.66-.65.7.7,0,0,1,.66-.66h2.52a.67.67,0,0,1,.65.66.61.61,0,0,1-.65.65Zm0,17a.64.64,0,0,1-.66-.66.66.66,0,0,1,.66-.6h2.52a.63.63,0,0,1,.65.6.61.61,0,0,1-.65.66Zm5.09-34a.7.7,0,0,1-.65-.6.66.66,0,0,1,.65-.65h2.57a.64.64,0,0,1,.66.65.66.66,0,0,1-.66.6Zm0,17a.66.66,0,0,1-.65-.65.75.75,0,0,1,.65-.66h2.57a.71.71,0,0,1,.66.66.64.64,0,0,1-.66.65Zm0,17a.67.67,0,0,1-.65-.66.7.7,0,0,1,.65-.6h2.57a.66.66,0,0,1,.66.6.64.64,0,0,1-.66.66Zm5.13-34a.65.65,0,0,1-.65-.6.63.63,0,0,1,.65-.65h2.52a.61.61,0,0,1,.66.65.63.63,0,0,1-.66.6Zm0,17a.63.63,0,0,1-.65-.65.7.7,0,0,1,.65-.66h1.21a.66.66,0,0,1,.61.66.6.6,0,0,1-.61.65Zm0,17a.63.63,0,0,1-.65-.66.66.66,0,0,1,.65-.6h2.52a.63.63,0,0,1,.66.6.61.61,0,0,1-.66.66Z"/><path class="cls-1" d="M124,97.63a.65.65,0,0,1,.6-.65h2.72a.59.59,0,0,1,.6.65.66.66,0,0,1-.6.65h-2v1.91a.63.63,0,0,1-.65.66.67.67,0,0,1-.65-.66Zm0,5.18a.63.63,0,0,1,.65-.65.61.61,0,0,1,.65.65v2.57a.63.63,0,0,1-.65.66.66.66,0,0,1-.65-.66Zm0,5.19a.64.64,0,0,1,.65-.66.61.61,0,0,1,.65.66v2.57a.63.63,0,0,1-.65.65.66.66,0,0,1-.65-.65Zm1.56,8.86a.58.58,0,0,1-.66-.5.43.43,0,0,1-.25.05.67.67,0,0,1-.65-.66v-2.57a.63.63,0,0,1,.65-.65.61.61,0,0,1,.65.65v2.42a2.23,2.23,0,0,1,.25,0h2.57a.7.7,0,0,1,.66.65.63.63,0,0,1-.66.65ZM124,118.37a.64.64,0,0,1,.65-.66.61.61,0,0,1,.65.66v2.57a.64.64,0,0,1-.65.66.67.67,0,0,1-.65-.66Zm0,5.18a.63.63,0,0,1,.65-.66.61.61,0,0,1,.65.66v2.57a.67.67,0,0,1-.65.65.71.71,0,0,1-.65-.65Zm0,5.19a.63.63,0,0,1,.65-.66.61.61,0,0,1,.65.66v2.57a.66.66,0,0,1-.65.65.7.7,0,0,1-.65-.65Zm5.89-30.46a.75.75,0,0,1-.65-.65.66.66,0,0,1,.65-.65h2.62a.59.59,0,0,1,.6.65.66.66,0,0,1-.6.65Zm.85,18.58a.61.61,0,0,1-.65-.65.66.66,0,0,1,.65-.65h2.57a.7.7,0,0,1,.66.65.63.63,0,0,1-.66.65Zm6.75-18.27a9.1,9.1,0,0,0-2.37-.3h0a.75.75,0,0,1-.65-.65.66.66,0,0,1,.65-.65h0a9.65,9.65,0,0,1,2.67.4.54.54,0,0,1,.45.76.59.59,0,0,1-.55.45ZM135.73,117l-.66-.15a.67.67,0,0,1-.55-.76.72.72,0,0,1,.81-.55,1.7,1.7,0,0,0,.3.1c.1,0,.15-.1.25-.1a7.11,7.11,0,0,0,2.37-.56.74.74,0,0,1,.85.36.72.72,0,0,1-.4.85,5.4,5.4,0,0,1-.65.25.59.59,0,0,1,.25.7.69.69,0,0,1-.66.45s-.1,0-.2,0A17.89,17.89,0,0,0,135.73,117Zm3.87,1.71c-.25-.25-.4-.65-.2-.9a.72.72,0,0,1,.91-.2,7.38,7.38,0,0,1,2.11,1.86.69.69,0,0,1,0,.91,1.24,1.24,0,0,1-.45.1.6.6,0,0,1-.5-.2A6.53,6.53,0,0,0,139.6,118.72Zm.1-19.18a.65.65,0,1,1,.76-1.06,8.33,8.33,0,0,1,2.06,1.71.64.64,0,0,1,0,.91.68.68,0,0,1-.45.2.43.43,0,0,1-.45-.25A7.93,7.93,0,0,0,139.7,99.54Zm.65,14.35a13.62,13.62,0,0,0,1.71-1.71.61.61,0,0,1,.91-.1.68.68,0,0,1,.1.91,11.61,11.61,0,0,1-1.91,1.91.68.68,0,0,1-.41.15.83.83,0,0,1-.5-.25A.59.59,0,0,1,140.36,113.89Zm2.37,8.41a.67.67,0,0,1,.3-.86.69.69,0,0,1,.86.35,12.1,12.1,0,0,1,.65,2.72.71.71,0,0,1-.65.71.61.61,0,0,1-.65-.65A7.51,7.51,0,0,0,142.73,122.29Zm.25-19.23a.57.57,0,0,1,.25-.86.61.61,0,0,1,.86.25,9.9,9.9,0,0,1,.91,2.67.63.63,0,0,1-.55.71h-.1a.61.61,0,0,1-.65-.51A11.93,11.93,0,0,0,143,103.06Zm.25,7a7.16,7.16,0,0,0,.55-2.31.69.69,0,0,1,.75-.6.76.76,0,0,1,.56.7,9.86,9.86,0,0,1-.66,2.72.58.58,0,0,1-.55.4c-.15,0-.2,0-.25,0A.67.67,0,0,1,143.23,110.06Zm.05,17.17a.64.64,0,0,1,.6-.71.6.6,0,0,1,.71.55,11.26,11.26,0,0,0,.4,2.42.78.78,0,0,1-.4.86h-.2a.86.86,0,0,1-.66-.45A11.35,11.35,0,0,1,143.28,127.23Zm2.62,5a.75.75,0,0,1-.61-.71.66.66,0,0,1,.71-.61h.15c.3,0,.7.1.75.41a.65.65,0,0,1-.35.85,3.84,3.84,0,0,1-.45.05Z"/><path class="cls-1" d="M149.05,97.93a.61.61,0,0,1,1.1-.5l1.06,2.37a.61.61,0,0,1-.35.81.55.55,0,0,1-.25.05.57.57,0,0,1-.55-.35Zm2,4.73a.71.71,0,0,1,.3-.91.67.67,0,0,1,.86.41l1,2.31a.67.67,0,0,1-.35.86h-.25a.55.55,0,0,1-.55-.4Zm2,4.63a.59.59,0,0,1,.3-.8.7.7,0,0,1,.91.3l1,2.37a.59.59,0,0,1-.3.8.67.67,0,0,1-.25.05.62.62,0,0,1-.61-.35Zm2,4.74a.65.65,0,1,1,1.21-.5l1,2.31a.62.62,0,0,1-.55.91.51.51,0,0,1-.55-.35Zm2,4.68a.6.6,0,0,1,.4-.8c.3-.2.66,0,.86.3l1,2.36a.69.69,0,0,1-.35.86c-.05,0-.2.05-.25.05a.6.6,0,0,1-.55-.4Zm2,4.68a.67.67,0,0,1,.35-.86.75.75,0,0,1,.85.41l1,2.37a.65.65,0,0,1-.35.81h-.25a.51.51,0,0,1-.55-.35Zm2,4.68a.61.61,0,0,1,.4-.8.61.61,0,0,1,.8.3l1,2.37a.64.64,0,0,1-.3.85.51.51,0,0,1-.25.05.6.6,0,0,1-.6-.41Zm2.82,6.14a.64.64,0,0,1-.2-.15s0,0,0,0-.1-.05-.1-.11-.05,0-.05-.1l-.45-1a.67.67,0,0,1,1.06-.7.62.62,0,0,1,.65-.1.6.6,0,0,1,.4.8l-.4.91a.8.8,0,0,1-.41.51Zm1.06-4.28,1-2.37a.65.65,0,0,1,.86-.3.63.63,0,0,1,.35.8l-1,2.36a.54.54,0,0,1-.55.41.36.36,0,0,1-.25-.05A.66.66,0,0,1,164.76,127.93Zm2.32-3.83a.65.65,0,0,1-.35-.81l1-2.37a.78.78,0,0,1,.85-.41.63.63,0,0,1,.35.86l-1,2.37a.51.51,0,0,1-.55.35Zm1.66-5.54,1-2.36a.57.57,0,0,1,.81-.3.6.6,0,0,1,.4.8l-1.06,2.37a.6.6,0,0,1-.55.4c-.05,0-.2-.05-.25-.05A.66.66,0,0,1,168.74,118.57Zm2-4.73,1-2.31a.73.73,0,0,1,.91-.35.7.7,0,0,1,.3.86l-1,2.37a.61.61,0,0,1-.6.35.64.64,0,0,1-.25-.05A.65.65,0,0,1,170.7,113.83Zm2-4.68,1-2.37a.66.66,0,0,1,.85-.3.59.59,0,0,1,.3.8l-1,2.37a.51.51,0,0,1-.55.35A.75.75,0,0,1,173,110,.64.64,0,0,1,172.65,109.16Zm2.31-3.83a.67.67,0,0,1-.35-.86l1.06-2.31a.6.6,0,0,1,.8-.41.62.62,0,0,1,.3.8l-1,2.37a.54.54,0,0,1-.55.4Zm1.66-5.54,1-2.37a.59.59,0,0,1,.81-.3.61.61,0,0,1,.35.8l-1,2.37a.85.85,0,0,1-.65.35.56.56,0,0,1-.25-.05A.59.59,0,0,1,176.63,99.79Z"/><path class="cls-1" d="M178.07,131.31l1-2.32a.54.54,0,0,1,.76-.4.62.62,0,0,1,.41.8l-.91,2.37a.59.59,0,0,1-.56.46s-.2,0-.25-.05A.78.78,0,0,1,178.07,131.31Zm1.86-4.69.91-2.41a.6.6,0,0,1,.81-.41.65.65,0,0,1,.31.86l-.86,2.42a.62.62,0,0,1-.61.35.68.68,0,0,1-.25,0A.55.55,0,0,1,179.94,126.62Zm2.42-3.87a.6.6,0,0,1-.51-.2.63.63,0,0,1-.15-.71l.91-2.42a.69.69,0,0,1,.81-.4.77.77,0,0,1,.4.86l-.65,1.56h1.71a.66.66,0,0,1,.66.65.61.61,0,0,1-.66.66Zm1.51-4.83a.68.68,0,0,1-.35-.86l.86-2.42a.67.67,0,0,1,.86-.35.62.62,0,0,1,.35.81l-.85,2.42a.79.79,0,0,1-.65.41Zm1.81-4.79a.66.66,0,0,1-.4-.81l.91-2.47a.64.64,0,0,1,.81-.3.61.61,0,0,1,.4.76l-.91,2.42a.73.73,0,0,1-.66.4Zm1.76,9.62a.67.67,0,0,1-.65-.66.75.75,0,0,1,.65-.65H190a.66.66,0,0,1,.6.65.6.6,0,0,1-.6.66Zm0-14.39a.69.69,0,0,1-.4-.81l.9-2.37a.65.65,0,1,1,1.21.46l-.91,2.36a.57.57,0,0,1-.6.36Zm1.41-5.59.86-2.37a.65.65,0,0,1,.85-.35.58.58,0,0,1,.35.81l-.86,2.37a.77.77,0,0,1-.6.45c-.1,0-.15-.1-.26-.1A.61.61,0,0,1,188.85,102.76ZM190.62,98l.2-.51a.58.58,0,0,1,.66-.4.75.75,0,0,1,.7.4l.15.51a.68.68,0,0,1-.35.86c-.1,0-.15,0-.2,0a.63.63,0,0,1-.3,0,.3.3,0,0,1-.2,0l-.25,0A.7.7,0,0,1,190.62,98Zm1.91,24.77a.66.66,0,0,1-.65-.66.74.74,0,0,1,.65-.65h2.57a.66.66,0,0,1,.6.65.6.6,0,0,1-.6.66Zm-.5-21.9a.57.57,0,0,1,.4-.81.59.59,0,0,1,.81.35l.9,2.37a.68.68,0,0,1-.4.8c-.05,0-.11.1-.21.1a.7.7,0,0,1-.6-.45Zm1.86,4.79a.63.63,0,0,1,.3-.86c.4-.1.71,0,.81.35l.91,2.42a.58.58,0,0,1-.41.81h-.15a.61.61,0,0,1-.6-.36Zm1.76,4.68a.53.53,0,0,1,.3-.76.69.69,0,0,1,.86.3l.85,2.47a.61.61,0,0,1-.3.81h-.26a.54.54,0,0,1-.55-.4Zm2,12.44a.63.63,0,0,1-.61-.66.7.7,0,0,1,.61-.65h2.16l-.55-1.56a.69.69,0,0,1,.35-.86.75.75,0,0,1,.86.4l.85,2.42a.62.62,0,0,1-.35.81h-.4a.49.49,0,0,1-.35.1Zm-.2-7.65a.6.6,0,0,1,.4-.81.55.55,0,0,1,.76.35l1,2.42a.75.75,0,0,1-.4.86h-.26a.54.54,0,0,1-.55-.41Zm3.58,9.57a.69.69,0,0,1,.4-.86.63.63,0,0,1,.8.41l.91,2.41a.6.6,0,0,1-.4.76s-.1,0-.25,0a.53.53,0,0,1-.55-.35Zm1.81,4.73a.63.63,0,0,1,.35-.8.67.67,0,0,1,.86.4l.85,2.32a.65.65,0,0,1-.35.85.38.38,0,0,1-.21.05.83.83,0,0,1-.65-.46Z"/><path class="cls-1" d="M204.14,98.28a.67.67,0,0,1-.65-.65.61.61,0,0,1,.65-.65h2.62a.66.66,0,0,1,.66.65.75.75,0,0,1-.66.65Zm5.24,0a.67.67,0,0,1-.66-.65.61.61,0,0,1,.66-.65H212a.62.62,0,0,1,.6.65.7.7,0,0,1-.6.65Zm5.09,0a.7.7,0,0,1-.56-.65.64.64,0,0,1,.66-.65h2.61a.64.64,0,0,1,.66.65.71.71,0,0,1-.66.65h-1.41v2a.66.66,0,0,1-.65.65.6.6,0,0,1-.65-.65Zm0,4.58a.63.63,0,0,1,.65-.65.7.7,0,0,1,.65.65v2.62a.66.66,0,0,1-.65.61.6.6,0,0,1-.65-.61Zm0,5.19a.66.66,0,0,1,.65-.65.75.75,0,0,1,.65.65v2.62a.66.66,0,0,1-.65.66.61.61,0,0,1-.65-.66Zm0,5.23a.66.66,0,0,1,.65-.65.74.74,0,0,1,.65.65v2.62a.66.66,0,0,1-.65.65.61.61,0,0,1-.65-.65Zm0,5.24a.63.63,0,0,1,.65-.65.7.7,0,0,1,.65.65v2.62a.7.7,0,0,1-.65.66.63.63,0,0,1-.65-.66Zm0,5.18a.62.62,0,0,1,.65-.6.7.7,0,0,1,.65.6v2.62a.66.66,0,0,1-.65.65.6.6,0,0,1-.65-.65Zm0,5.24a.66.66,0,0,1,.65-.65.75.75,0,0,1,.65.65v2.62a.67.67,0,0,1-.65.66.61.61,0,0,1-.65-.66Zm5.33-30.66a.66.66,0,0,1-.66-.65.61.61,0,0,1,.66-.65h2.62a.67.67,0,0,1,.66.65.75.75,0,0,1-.66.65Zm5.23,0a.67.67,0,0,1-.66-.65A.61.61,0,0,1,225,97h2.62a.66.66,0,0,1,.66.65.75.75,0,0,1-.66.65Z"/><path class="cls-1" d="M228,114.34a10.46,10.46,0,0,1,.15-1.81.54.54,0,0,1,.6-.55.57.57,0,0,1,.61.66c0,.55-.1,1.16-.1,1.71v.76a.56.56,0,0,1-.56.71h0a.66.66,0,0,1-.65-.66Zm.3,3.48a.76.76,0,0,1,.5-.76.74.74,0,0,1,.8.51,10.92,10.92,0,0,0,.66,2.52c.1.3,0,.61-.46.75a.36.36,0,0,1-.2.05.7.7,0,0,1-.6-.46A19.53,19.53,0,0,1,228.27,117.82Zm.25-7.91a15.31,15.31,0,0,1,.81-2.62.67.67,0,0,1,.86-.35.77.77,0,0,1,.4.86,15.23,15.23,0,0,0-.81,2.36.69.69,0,0,1-.65.5H229A.62.62,0,0,1,228.52,109.91Zm1.56,13a.55.55,0,0,1,.25-.86.6.6,0,0,1,.85.25,19.42,19.42,0,0,0,1.31,2.17.67.67,0,0,1-.2.91.52.52,0,0,1-.3.1.72.72,0,0,1-.61-.3A11.07,11.07,0,0,1,230.08,122.9Zm.5-18c.46-.75,1-1.51,1.46-2.21a.64.64,0,1,1,1,.8,24,24,0,0,0-1.41,2.07.68.68,0,0,1-.55.3.55.55,0,0,1-.31-.05A.62.62,0,0,1,230.58,104.92Zm2.52,22.3a.64.64,0,0,1,0-.91.7.7,0,0,1,1,0,14.16,14.16,0,0,0,1.86,1.61.62.62,0,0,1,.15.91.65.65,0,0,1-.56.25.82.82,0,0,1-.35-.05C234.46,128.43,233.8,127.88,233.1,127.23ZM234,100.8a8.63,8.63,0,0,1,2.11-1.66.52.52,0,0,1,.8.2.54.54,0,0,1-.15.81c-.65.5-1.31,1-2,1.61a1,1,0,0,1-.46.1.69.69,0,0,1-.45-.2C233.55,101.4,233.71,101,234,100.8Zm3.52,29.71a.86.86,0,0,1-.35-1,.74.74,0,0,1,1-.25,9.15,9.15,0,0,0,2.21.9.78.78,0,0,1,.45.86.77.77,0,0,1-.65.45h-.15C239.09,131.21,238.28,130.85,237.48,130.5Zm.91-32.62A15.09,15.09,0,0,1,241,97a.68.68,0,0,1,.81.5.65.65,0,0,1-.51.76,20.5,20.5,0,0,0-2.36.75c-.05.1-.1.1-.26.1a.64.64,0,0,1-.25-1.21ZM242,131.41a.66.66,0,0,1,.7-.61,10,10,0,0,0,2.16.15h.4a.65.65,0,0,1,.6.6.6.6,0,0,1-.6.66h-.4a10.8,10.8,0,0,1-2.26-.15A.61.61,0,0,1,242,131.41Zm2.87-33.63a4.79,4.79,0,0,0-1.21.1.75.75,0,0,1-.71-.66.71.71,0,0,1,.65-.7,8.74,8.74,0,0,1,1.26-.05,12.41,12.41,0,0,1,1.41.05.69.69,0,0,1,0,1.36h-.11A5,5,0,0,0,244.88,97.78Zm2.82,32.92A17.58,17.58,0,0,0,250,130a.63.63,0,0,1,.85.3c.1.45,0,.75-.3.91A26.12,26.12,0,0,1,248,132h-.15a.6.6,0,0,1-.61-.5A.56.56,0,0,1,247.7,130.7Zm1-32.47a.56.56,0,0,1-.5-.76c0-.3.5-.5.8-.45a11.61,11.61,0,0,1,2.47.91.58.58,0,0,1,.35.81.65.65,0,0,1-.6.4c-.05,0-.2,0-.25,0A15,15,0,0,0,248.66,98.23Zm3.63,30.66a7.1,7.1,0,0,0,2-1.41.77.77,0,0,1,1,.15.69.69,0,0,1-.1.91,16.07,16.07,0,0,1-2.21,1.46.57.57,0,0,1-.3.1.71.71,0,0,1-.61-.3A.67.67,0,0,1,252.28,128.89Zm.85-28.59a.66.66,0,0,1,.71-1.11,23.28,23.28,0,0,1,2.06,1.71.57.57,0,0,1,0,.91.58.58,0,0,1-.5.2.46.46,0,0,1-.41-.15C254.45,101.3,253.8,100.8,253.14,100.29Zm3,25.47a20.19,20.19,0,0,0,1.51-2,.61.61,0,1,1,1,.7,19.83,19.83,0,0,1-1.56,2.16,1.07,1.07,0,0,1-.45.2.93.93,0,0,1-.46-.15A.66.66,0,0,1,256.16,125.77Zm.6-22.1a.64.64,0,0,1,.1-.9.55.55,0,0,1,.86.15,10.28,10.28,0,0,1,1.56,2.21.7.7,0,0,1-.26.86c-.15,0-.2.1-.35.1a.79.79,0,0,1-.55-.35A17.23,17.23,0,0,0,256.76,103.67Zm2.07,17.93a20.66,20.66,0,0,0,.91-2.32.64.64,0,0,1,.8-.45.83.83,0,0,1,.45.85,24.91,24.91,0,0,1-1,2.47.81.81,0,0,1-.65.41c-.05,0-.2-.05-.25-.05A.74.74,0,0,1,258.83,121.59Zm.35-13.55c-.1-.45,0-.76.4-.9a.73.73,0,0,1,.91.35,25.52,25.52,0,0,1,.76,2.57.73.73,0,0,1-.51.81h-.15a.73.73,0,0,1-.65-.56A12.07,12.07,0,0,0,259.18,108Zm1.11,8.81c0-.81.1-1.71.1-2.52a14.87,14.87,0,0,0-.05-1.5.62.62,0,0,1,.55-.66.58.58,0,0,1,.71.56,8.66,8.66,0,0,1,.1,1.61,21.09,21.09,0,0,1-.21,2.67.6.6,0,0,1-.6.56h-.1A.63.63,0,0,1,260.29,116.85Z"/><path class="cls-1" d="M268.9,97.63a.61.61,0,0,1,.66-.65.66.66,0,0,1,.65.65v2.62a.75.75,0,0,1-.65.65.67.67,0,0,1-.66-.65Zm0,5.23a.61.61,0,0,1,.66-.65.66.66,0,0,1,.65.65v2.62a.7.7,0,0,1-.65.61.63.63,0,0,1-.66-.61Zm0,5.19a.64.64,0,0,1,.66-.65.7.7,0,0,1,.65.65v2.62a.7.7,0,0,1-.65.66.64.64,0,0,1-.66-.66Zm0,5.23a.61.61,0,0,1,.66-.65.66.66,0,0,1,.65.65v2.62a.74.74,0,0,1-.65.65.67.67,0,0,1-.66-.65Zm0,5.24a.61.61,0,0,1,.66-.65.67.67,0,0,1,.65.65v2.62a.75.75,0,0,1-.65.66.67.67,0,0,1-.66-.66Zm0,5.18a.6.6,0,0,1,.66-.6.66.66,0,0,1,.65.6v2.62a.7.7,0,0,1-.65.65.64.64,0,0,1-.66-.65Zm0,5.24a.61.61,0,0,1,.66-.65.66.66,0,0,1,.65.65v2.62a.71.71,0,0,1-.65.66.64.64,0,0,1-.66-.66Z"/><path class="cls-1" d="M279.31,97.63a.65.65,0,0,1,.61-.65h2.72a.6.6,0,0,1,.61.65.66.66,0,0,1-.61.65h-2v1.91a.64.64,0,0,1-.66.66.67.67,0,0,1-.66-.66Zm0,5.18a.64.64,0,0,1,.66-.65.61.61,0,0,1,.66.65v2.57a.63.63,0,0,1-.66.66.67.67,0,0,1-.66-.66Zm0,5.19a.64.64,0,0,1,.66-.66.61.61,0,0,1,.66.66v2.57a.63.63,0,0,1-.66.65.67.67,0,0,1-.66-.65Zm1.57,8.86a.57.57,0,0,1-.65-.5.45.45,0,0,1-.26.05.67.67,0,0,1-.66-.66v-2.57a.64.64,0,0,1,.66-.65.61.61,0,0,1,.66.65v2.42a2,2,0,0,1,.25,0h2.56a.7.7,0,0,1,.65.65.63.63,0,0,1-.65.65Zm-1.57,1.51a.64.64,0,0,1,.66-.66.61.61,0,0,1,.66.66v2.57a.64.64,0,0,1-.66.66.67.67,0,0,1-.66-.66Zm0,5.18a.64.64,0,0,1,.66-.66.61.61,0,0,1,.66.66v2.57a.67.67,0,0,1-.66.65.71.71,0,0,1-.66-.65Zm0,5.19a.64.64,0,0,1,.66-.66.61.61,0,0,1,.66.66v2.57a.66.66,0,0,1-.66.65.7.7,0,0,1-.66-.65Zm5.89-30.46a.75.75,0,0,1-.66-.65.67.67,0,0,1,.66-.65h2.62a.6.6,0,0,1,.61.65.66.66,0,0,1-.61.65Zm.86,18.58a.61.61,0,0,1-.66-.65.67.67,0,0,1,.66-.65h2.57a.7.7,0,0,1,.65.65.63.63,0,0,1-.65.65Zm6.75-18.27a9.13,9.13,0,0,0-2.37-.3h0a.75.75,0,0,1-.65-.65.66.66,0,0,1,.65-.65h0a9.64,9.64,0,0,1,2.67.4.54.54,0,0,1,.45.76.59.59,0,0,1-.55.45ZM291,117l-.66-.15a.67.67,0,0,1-.55-.76.72.72,0,0,1,.81-.55,1.65,1.65,0,0,0,.3.1c.1,0,.14-.1.25-.1a7.09,7.09,0,0,0,2.36-.56.74.74,0,0,1,.86.36.72.72,0,0,1-.41.85,5.26,5.26,0,0,1-.65.25.59.59,0,0,1,.25.7.69.69,0,0,1-.65.45s-.1,0-.2,0A17.66,17.66,0,0,0,291,117Zm3.88,1.71c-.25-.25-.4-.65-.2-.9a.72.72,0,0,1,.91-.2,7.38,7.38,0,0,1,2.11,1.86.69.69,0,0,1-.05.91,1.21,1.21,0,0,1-.46.1.59.59,0,0,1-.5-.2A6.56,6.56,0,0,0,294.87,118.72Zm.1-19.18a.65.65,0,0,1,.76-1.06,8.38,8.38,0,0,1,2.06,1.71.64.64,0,0,1,0,.91.67.67,0,0,1-.45.2.45.45,0,0,1-.46-.25A7.82,7.82,0,0,0,295,99.54Zm.66,14.35a14.65,14.65,0,0,0,1.71-1.71.6.6,0,0,1,.9-.1.68.68,0,0,1,.1.91,11.53,11.53,0,0,1-1.91,1.91.68.68,0,0,1-.41.15.84.84,0,0,1-.5-.25A.59.59,0,0,1,295.63,113.89Zm2.36,8.41a.67.67,0,0,1,.3-.86.69.69,0,0,1,.86.35,11.9,11.9,0,0,1,.66,2.72.71.71,0,0,1-.66.71.61.61,0,0,1-.65-.65A7.45,7.45,0,0,0,298,122.29Zm.25-19.23a.57.57,0,0,1,.25-.86.61.61,0,0,1,.86.25,9.82,9.82,0,0,1,.9,2.67.63.63,0,0,1-.55.71h-.1a.61.61,0,0,1-.66-.51A11.79,11.79,0,0,0,298.24,103.06Zm.25,7a7.13,7.13,0,0,0,.55-2.31.69.69,0,0,1,.76-.6.75.75,0,0,1,.55.7,9.89,9.89,0,0,1-.66,2.72.59.59,0,0,1-.56.4c-.15,0-.2,0-.25,0A.67.67,0,0,1,298.49,110.06Zm0,17.17a.64.64,0,0,1,.6-.71.59.59,0,0,1,.71.55,11.76,11.76,0,0,0,.4,2.42.78.78,0,0,1-.4.86h-.2a.85.85,0,0,1-.66-.45A11.28,11.28,0,0,1,298.54,127.23Zm2.62,5a.75.75,0,0,1-.6-.71.66.66,0,0,1,.71-.61h.15c.3,0,.7.1.75.41a.65.65,0,0,1-.35.85,4,4,0,0,1-.45.05Z"/><path class="cls-1" d="M308.64,97.63a.63.63,0,0,1,.66-.65H312a.6.6,0,0,1,.65.65.62.62,0,0,1-.65.6H309.9v1.91a.62.62,0,0,1-.61.66.67.67,0,0,1-.66-.66Zm0,5.09a.67.67,0,0,1,.66-.65.62.62,0,0,1,.61.65v2.57a.65.65,0,0,1-.61.65.7.7,0,0,1-.66-.65Zm0,5.14a.64.64,0,0,1,.66-.66.6.6,0,0,1,.61.66v2.51a.62.62,0,0,1-.61.66.67.67,0,0,1-.66-.66Zm0,5.08a.64.64,0,0,1,.66-.65.6.6,0,0,1,.61.65v1H312a.66.66,0,0,1,.65.66.6.6,0,0,1-.65.65H309.9v.25a.61.61,0,0,1-.61.6.66.66,0,0,1-.66-.6Zm0,5.09a.62.62,0,0,1,.66-.6.58.58,0,0,1,.61.6v2.57a.62.62,0,0,1-.61.65.67.67,0,0,1-.66-.65Zm0,5.13a.63.63,0,0,1,.66-.65.59.59,0,0,1,.61.65v2.57a.61.61,0,0,1-.61.6.66.66,0,0,1-.66-.6Zm.75,9.06a.63.63,0,0,1-.6-.66c0-.1,0-.2.05-.25a.67.67,0,0,1-.2-.51v-2.56a.63.63,0,0,1,.66-.61.58.58,0,0,1,.61.61v2.56c0,.05,0,.1,0,.15H312a.62.62,0,0,1,.65.6.61.61,0,0,1-.65.66Zm5.13-34a.66.66,0,0,1-.65-.6.63.63,0,0,1,.65-.65h2.52a.61.61,0,0,1,.65.65.62.62,0,0,1-.65.6Zm0,17a.63.63,0,0,1-.65-.65.7.7,0,0,1,.65-.66h2.52a.66.66,0,0,1,.65.66.61.61,0,0,1-.65.65Zm0,17a.64.64,0,0,1-.65-.66.66.66,0,0,1,.65-.6h2.52a.63.63,0,0,1,.65.6.61.61,0,0,1-.65.66Zm5.09-34a.7.7,0,0,1-.66-.6.66.66,0,0,1,.66-.65h2.57a.64.64,0,0,1,.66.65.66.66,0,0,1-.66.6Zm0,17a.66.66,0,0,1-.66-.65.75.75,0,0,1,.66-.66h2.57a.71.71,0,0,1,.66.66.64.64,0,0,1-.66.65Zm0,17a.67.67,0,0,1-.66-.66.7.7,0,0,1,.66-.6h2.57a.66.66,0,0,1,.66.6.64.64,0,0,1-.66.66Zm5.14-34a.66.66,0,0,1-.65-.6.63.63,0,0,1,.65-.65h2.52a.61.61,0,0,1,.66.65.62.62,0,0,1-.66.6Zm0,17a.63.63,0,0,1-.65-.65.7.7,0,0,1,.65-.66H326a.66.66,0,0,1,.61.66.6.6,0,0,1-.61.65Zm0,17a.64.64,0,0,1-.65-.66.66.66,0,0,1,.65-.6h2.52a.63.63,0,0,1,.66.6.61.61,0,0,1-.66.66Z"/></svg>